<?xml version="1.0" encoding="UTF-8" standalone="no"?>
<!DOCTYPE svg PUBLIC "-//W3C//DTD SVG 1.1//EN" "http://www.w3.org/Graphics/SVG/1.1/DTD/svg11.dtd">
<svg xmlns="http://www.w3.org/2000/svg" version="1.1" viewBox="0.00 0.00 512.00 512.00">
<g stroke-width="2.00" fill="none" stroke-linecap="butt">
<path stroke="#8e7a29" vector-effect="non-scaling-stroke" d="
  M 351.86 109.78
  L 333.51 109.29"
/>
<path stroke="#e1cc75" vector-effect="non-scaling-stroke" d="
  M 249.51 151.85
  Q 256.58 169.29 260.93 188.22"
/>
<path stroke="#7f8285" vector-effect="non-scaling-stroke" d="
  M 260.93 188.22
  Q 264.90 207.88 267.03 223.00
  Q 267.79 228.39 268.06 237.42"
/>
<path stroke="#c7cccc" vector-effect="non-scaling-stroke" d="
  M 268.06 237.42
  Q 265.77 233.84 263.95 230.28
  Q 261.28 225.05 260.08 223.03
  Q 253.08 211.37 247.22 202.67
  Q 224.94 169.59 190.49 143.97
  Q 166.63 126.23 140.67 116.52
  Q 118.83 108.35 98.75 107.03
  C 81.08 105.87 61.70 107.70 45.85 115.35
  Q 21.08 127.30 9.06 153.67"
/>
<path stroke="#757980" vector-effect="non-scaling-stroke" d="
  M 268.06 237.42
  Q 268.88 239.47 269.02 242.41
  Q 269.04 242.88 269.50 242.96
  L 275.02 243.97"
/>
<path stroke="#c7cccc" vector-effect="non-scaling-stroke" d="
  M 275.02 243.97
  Q 278.66 246.29 282.26 248.14
  Q 287.46 250.80 289.59 252.09
  Q 301.78 259.44 309.08 264.42
  Q 349.34 291.89 376.38 333.36
  C 391.95 357.26 403.32 385.40 405.14 414.11
  Q 405.93 426.66 404.28 439.80
  C 402.67 452.65 398.36 465.45 390.98 476.23
  Q 379.01 493.72 358.50 503.11"
/>
<path stroke="#d7c470" vector-effect="non-scaling-stroke" d="
  M 229.85 440.75
  Q 228.72 436.94 227.39 433.06
  Q 225.85 428.57 224.99 425.37
  Q 221.01 410.67 218.81 400.75
  Q 211.21 366.63 216.53 331.79
  Q 221.56 298.94 240.34 272.42
  Q 242.22 269.76 239.59 271.68
  C 203.18 298.24 153.30 302.84 110.32 292.99
  Q 100.31 290.69 90.26 288.02
  Q 85.51 286.76 80.83 285.25
  Q 75.89 283.66 71.50 282.21"
/>
<path stroke="#8e7a29" vector-effect="non-scaling-stroke" d="
  M 402.60 169.13
  Q 403.19 178.43 402.20 187.72"
/>
<path stroke="#e1cc75" vector-effect="non-scaling-stroke" d="
  M 360.21 262.35
  Q 343.63 256.00 336.75 254.29
  Q 330.40 252.71 323.99 251.13"
/>
<path stroke="#8e7a29" vector-effect="non-scaling-stroke" d="
  M 323.99 251.13
  C 322.77 246.15 321.70 240.96 319.95 236.43
  Q 309.16 208.58 282.73 195.20
  Q 273.40 190.48 260.93 188.22"
/>
<path stroke="#7f8285" vector-effect="non-scaling-stroke" d="
  M 323.99 251.13
  Q 305.43 247.30 288.75 244.97
  Q 283.10 244.18 275.02 243.97"
/>
<path stroke="#8e7a29" vector-effect="non-scaling-stroke" d="
  M 198.24 462.17
  Q 191.87 418.31 166.61 384.15
  Q 123.41 325.73 50.26 313.69"
/>
<path stroke="#8e7a29" vector-effect="non-scaling-stroke" d="
  M 133.42 486.71
  Q 132.51 482.25 131.64 477.77
  C 121.40 425.15 78.29 385.78 25.37 378.86"
/>
<path stroke="#8e7a29" vector-effect="non-scaling-stroke" d="
  M 59.49 475.99
  Q 45.20 466.65 36.11 452.58"
/>
</g>
<path fill="#2c2f38" d="
  M 318.05 0.00
  L 320.03 0.00
  Q 330.87 1.78 341.71 3.47
  Q 352.73 5.19 356.49 7.02
  C 366.66 11.97 372.93 22.11 372.87 33.29
  Q 372.84 37.75 369.70 48.51
  Q 360.77 79.04 351.86 109.78
  L 333.51 109.29
  Q 343.55 74.83 353.51 40.53
  Q 355.38 34.09 354.91 31.33
  C 353.86 25.14 349.50 22.56 343.68 21.68
  Q 331.40 19.81 319.59 18.00
  C 314.97 17.30 311.38 15.52 310.35 10.56
  C 309.26 5.29 312.83 1.00 318.05 0.00
  Z"
/>
<path fill="#d1d4d1" d="
  M 249.51 151.85
  Q 256.58 169.29 260.93 188.22
  Q 264.90 207.88 267.03 223.00
  Q 267.79 228.39 268.06 237.42
  Q 265.77 233.84 263.95 230.28
  Q 261.28 225.05 260.08 223.03
  Q 253.08 211.37 247.22 202.67
  Q 224.94 169.59 190.49 143.97
  Q 166.63 126.23 140.67 116.52
  Q 118.83 108.35 98.75 107.03
  C 81.08 105.87 61.70 107.70 45.85 115.35
  Q 21.08 127.30 9.06 153.67
  Q 6.95 147.43 6.25 143.99
  Q 0.50 115.56 11.02 89.35
  C 14.97 79.52 20.95 70.24 27.13 61.66
  Q 33.24 53.17 41.67 45.42
  Q 53.79 34.27 69.00 28.06
  Q 73.06 26.40 77.08 25.37
  Q 81.46 24.25 85.41 23.29
  C 87.02 22.90 88.80 23.15 90.42 22.87
  C 98.62 21.46 107.17 22.20 115.70 23.53
  Q 119.61 24.14 123.44 25.07
  Q 150.29 31.56 172.81 47.71
  C 208.25 73.12 233.88 111.36 249.51 151.85
  Z"
/>
<path fill="#bdc3c7" d="
  M 268.06 237.42
  Q 268.88 239.47 269.02 242.41
  Q 269.04 242.88 269.50 242.96
  L 275.02 243.97
  Q 278.66 246.29 282.26 248.14
  Q 287.46 250.80 289.59 252.09
  Q 301.78 259.44 309.08 264.42
  Q 349.34 291.89 376.38 333.36
  C 391.95 357.26 403.32 385.40 405.14 414.11
  Q 405.93 426.66 404.28 439.80
  C 402.67 452.65 398.36 465.45 390.98 476.23
  Q 379.01 493.72 358.50 503.11
  Q 354.41 504.62 349.78 506.39
  C 345.74 507.94 341.51 508.73 337.31 509.77
  Q 334.49 510.47 330.61 510.91
  Q 327.22 511.30 323.87 512.00
  L 309.76 512.00
  Q 299.81 510.77 293.50 508.94
  Q 277.57 504.34 263.77 492.40
  Q 250.85 481.23 241.49 464.88
  Q 238.61 459.83 236.01 454.65
  C 233.77 450.15 231.97 445.39 229.85 440.75
  Q 228.72 436.94 227.39 433.06
  Q 225.85 428.57 224.99 425.37
  Q 221.01 410.67 218.81 400.75
  Q 211.21 366.63 216.53 331.79
  Q 221.56 298.94 240.34 272.42
  Q 242.22 269.76 239.59 271.68
  C 203.18 298.24 153.30 302.84 110.32 292.99
  Q 100.31 290.69 90.26 288.02
  Q 85.51 286.76 80.83 285.25
  Q 75.89 283.66 71.50 282.21
  C 51.87 274.39 34.54 264.65 20.46 249.06
  Q 6.25 233.32 1.72 212.76
  C 1.00 209.50 0.71 205.34 0.00 201.62
  L 0.00 188.50
  Q 0.72 185.45 1.03 182.35
  Q 1.38 178.84 1.97 176.16
  C 3.05 171.24 4.09 166.28 5.90 161.53
  Q 7.48 157.39 9.06 153.67
  Q 21.08 127.30 45.85 115.35
  C 61.70 107.70 81.08 105.87 98.75 107.03
  Q 118.83 108.35 140.67 116.52
  Q 166.63 126.23 190.49 143.97
  Q 224.94 169.59 247.22 202.67
  Q 253.08 211.37 260.08 223.03
  Q 261.28 225.05 263.95 230.28
  Q 265.77 233.84 268.06 237.42
  Z"
/>
<path fill="#f0c419" d="
  M 333.51 109.29
  L 351.86 109.78
  Q 361.20 110.17 379.98 112.25
  Q 393.84 113.78 398.57 124.75
  C 400.27 128.70 400.58 133.41 400.81 137.65
  Q 401.06 142.04 401.49 146.27
  Q 402.64 157.56 402.60 169.13
  Q 403.19 178.43 402.20 187.72
  Q 401.70 198.07 399.94 208.25
  C 397.58 221.87 393.06 235.24 383.69 245.70
  Q 375.26 255.10 360.21 262.35
  Q 343.63 256.00 336.75 254.29
  Q 330.40 252.71 323.99 251.13
  C 322.77 246.15 321.70 240.96 319.95 236.43
  Q 309.16 208.58 282.73 195.20
  Q 273.40 190.48 260.93 188.22
  Q 256.58 169.29 249.51 151.85
  Q 254.62 141.94 261.33 133.81
  Q 270.42 122.80 284.14 117.54
  C 296.57 112.79 309.92 110.61 323.16 109.99
  C 326.23 109.85 330.02 109.22 333.51 109.29
  Z"
/>
<path fill="#2c2f38" d="
  M 402.20 187.72
  Q 403.19 178.43 402.60 169.13
  Q 432.82 160.36 462.79 151.65
  Q 474.13 148.35 478.42 148.25
  Q 486.59 148.06 494.31 152.70
  Q 505.29 159.31 507.54 173.44
  Q 509.50 185.72 511.65 199.36
  C 512.28 203.37 511.32 207.23 507.69 209.45
  Q 504.07 211.66 500.10 210.30
  C 496.17 208.95 494.59 205.53 493.99 201.68
  Q 492.14 189.60 490.25 177.12
  C 489.34 171.11 486.32 166.77 480.20 166.18
  Q 477.41 165.91 471.86 167.51
  Q 437.08 177.56 402.20 187.72
  Z"
/>
<path fill="#2c2f38" d="
  M 323.99 251.13
  Q 305.43 247.30 288.75 244.97
  Q 283.10 244.18 275.02 243.97
  L 269.50 242.96
  Q 269.04 242.88 269.02 242.41
  Q 268.88 239.47 268.06 237.42
  Q 267.79 228.39 267.03 223.00
  Q 264.90 207.88 260.93 188.22
  Q 273.40 190.48 282.73 195.20
  Q 309.16 208.58 319.95 236.43
  C 321.70 240.96 322.77 246.15 323.99 251.13
  Z"
/>
<path fill="#d1d4d1" d="
  M 275.02 243.97
  Q 283.10 244.18 288.75 244.97
  Q 305.43 247.30 323.99 251.13
  Q 330.40 252.71 336.75 254.29
  Q 343.63 256.00 360.21 262.35
  Q 387.49 273.11 411.47 289.05
  C 445.03 311.35 473.84 343.13 485.29 382.17
  Q 488.23 392.20 489.36 403.13
  Q 490.30 412.34 489.22 419.49
  C 488.87 421.82 489.05 424.24 488.57 426.49
  Q 487.34 432.28 485.50 438.23
  Q 482.05 449.32 474.51 460.20
  Q 464.70 474.37 449.73 485.27
  Q 443.79 489.60 436.84 493.84
  Q 429.89 498.08 422.84 500.92
  Q 402.65 509.04 381.01 507.68
  Q 370.50 507.02 358.50 503.11
  Q 379.01 493.72 390.98 476.23
  C 398.36 465.45 402.67 452.65 404.28 439.80
  Q 405.93 426.66 405.14 414.11
  C 403.32 385.40 391.95 357.26 376.38 333.36
  Q 349.34 291.89 309.08 264.42
  Q 301.78 259.44 289.59 252.09
  Q 287.46 250.80 282.26 248.14
  Q 278.66 246.29 275.02 243.97
  Z"
/>
<path fill="#f0c419" d="
  M 229.85 440.75
  Q 222.75 445.90 215.93 450.93
  Q 211.96 453.85 198.24 462.17
  Q 191.87 418.31 166.61 384.15
  Q 123.41 325.73 50.26 313.69
  Q 59.67 297.49 71.50 282.21
  Q 75.89 283.66 80.83 285.25
  Q 85.51 286.76 90.26 288.02
  Q 100.31 290.69 110.32 292.99
  C 153.30 302.84 203.18 298.24 239.59 271.68
  Q 242.22 269.76 240.34 272.42
  Q 221.56 298.94 216.53 331.79
  Q 211.21 366.63 218.81 400.75
  Q 221.01 410.67 224.99 425.37
  Q 225.85 428.57 227.39 433.06
  Q 228.72 436.94 229.85 440.75
  Z"
/>
<path fill="#2c2f38" d="
  M 50.26 313.69
  Q 123.41 325.73 166.61 384.15
  Q 191.87 418.31 198.24 462.17
  Q 177.57 474.13 155.18 481.23
  Q 150.76 482.63 144.35 484.14
  Q 138.93 485.41 133.42 486.71
  Q 132.51 482.25 131.64 477.77
  C 121.40 425.15 78.29 385.78 25.37 378.86
  Q 26.67 373.47 27.93 368.14
  Q 29.27 362.42 30.84 357.50
  Q 33.70 348.57 35.08 345.01
  Q 41.40 328.79 50.26 313.69
  Z"
/>
<path fill="#f0c419" d="
  M 25.37 378.86
  C 78.29 385.78 121.40 425.15 131.64 477.77
  Q 132.51 482.25 133.42 486.71
  Q 123.33 488.19 119.25 488.54
  Q 101.72 490.06 85.27 486.47
  Q 71.49 483.46 59.49 475.99
  Q 45.20 466.65 36.11 452.58
  Q 28.60 440.51 25.58 426.23
  Q 22.07 409.66 23.61 392.75
  Q 23.94 389.05 25.37 378.86
  Z"
/>
<path fill="#2c2f38" d="
  M 36.11 452.58
  Q 45.20 466.65 59.49 475.99
  Q 29.35 484.41 6.83 505.38
  Q 6.78 505.43 6.77 505.35
  Q 6.77 505.31 6.79 505.28
  Q 27.85 482.71 36.11 452.58
  Z"
/>
</svg>
