<?xml version="1.0" encoding="utf-8"?>
<!-- Generator: Adobe Illustrator 21.0.0, SVG Export Plug-In . SVG Version: 6.00 Build 0)  -->
<svg fill="#656565" version="1.1" id="Layer_1" xmlns="http://www.w3.org/2000/svg" xmlns:xlink="http://www.w3.org/1999/xlink" x="0px" y="0px"
	 viewBox="0 0 512 512" style="enable-background:new 0 0 512 512;" xml:space="preserve">
<g>
	<path d="M362.7,0c-38.3,0-72.9,7.2-100,20.7s-49.3,35.5-49.3,64.7v85.3c0,2.8,0.9,5.4,1.3,8c-19.8-5.2-41.8-8-65.3-8
		c-38.2,0-72.9,7.2-100,20.7S0,226.8,0,256v170.7c0,29.2,22.3,51.2,49.3,64.7s61.8,20.7,100,20.7s72.9-7.2,100-20.7
		s49.3-35.5,49.3-64.7V418c19.6,5.2,41,8.7,64,8.7c38.3,0,72.9-7.2,100-20.7c27.1-13.5,49.3-35.5,49.3-64.7v-256
		c0-29.2-22.3-51.2-49.3-64.7C435.6,7.2,400.9,0,362.7,0z M362.7,42.7c32.5,0,61.4,7,80.7,16.7s26,19.8,26,26c0,6.2-6.8,16.3-26,26
		S395.2,128,362.7,128s-61.4-7-80.7-16.7s-26-19.8-26-26c0-6.2,6.8-16.3,26-26S330.2,42.7,362.7,42.7z M256,146
		c2.3,1.3,4.3,2.8,6.7,4c27.1,13.5,61.8,20.7,100,20.7s72.9-7.2,100-20.7c2.3-1.2,4.4-2.8,6.7-4v24.7c0,6.2-6.8,16.3-26,26
		c-19.3,9.7-48.2,16.7-80.7,16.7s-61.4-7-80.7-16.7c-19.3-9.7-26-19.8-26-26V146z M149.3,213.3c32.5,0,61.4,7,80.7,16.7
		s26,19.8,26,26c0,6.2-6.8,16.3-26,26s-48.2,16.7-80.7,16.7s-61.4-7-80.7-16.7s-26-19.8-26-26c0-6.2,6.8-16.3,26-26
		S116.8,213.3,149.3,213.3z M469.3,231.3V256c0,6.2-6.8,16.3-26,26s-48.2,16.7-80.7,16.7c-24.3,0-46.2-4-64-10V256
		c0-2.8-0.9-5.4-1.3-8c19.8,5.2,41.8,8,65.3,8c38.3,0,72.9-7.2,100-20.7C465,234.2,467.1,232.6,469.3,231.3z M42.7,316.7
		c2.3,1.3,4.3,2.8,6.7,4c27.1,13.5,61.8,20.7,100,20.7s72.9-7.2,100-20.7c2.3-1.2,4.4-2.8,6.7-4v24.7c0,6.2-6.8,16.3-26,26
		c-19.3,9.7-48.2,16.7-80.7,16.7s-61.4-7-80.7-16.7c-19.2-9.7-26-19.8-26-26V316.7z M469.3,316.7v24.7c0,6.2-6.8,16.3-26,26
		c-19.3,9.7-48.2,16.7-80.7,16.7c-24.3,0-46.2-3.4-64-9.3v-41.3c19.6,5.2,40.9,8,64,8c38.3,0,72.9-7.2,100-20.7
		C465,319.5,467.1,317.9,469.3,316.7z M42.7,402c2.3,1.3,4.3,2.8,6.7,4c27.1,13.5,61.8,20.7,100,20.7s72.9-7.2,100-20.7
		c2.3-1.2,4.4-2.8,6.7-4v24.7c0,6.2-6.8,16.3-26,26c-19.3,9.7-48.2,16.7-80.7,16.7s-61.4-7-80.7-16.7c-19.2-9.7-26-19.8-26-26V402z"
		/>
</g>
</svg>
