<svg width="173" height="116" viewBox="0 0 173 116" fill="none" xmlns="http://www.w3.org/2000/svg">
<path d="M77.7482 77.1298C77.7482 98.5972 60.3437 116 38.8741 116C17.4045 116 0 98.5972 0 77.1298C0 55.6624 17.4045 38.2596 38.8741 38.2596C60.3437 38.2596 77.7482 55.6624 77.7482 77.1298Z" fill="#656565"/>
<path d="M138.807 52.3018C138.807 81.1872 115.388 104.604 86.5 104.604C57.6116 104.604 34.1929 81.1872 34.1929 52.3018C34.1929 23.4163 57.6116 0 86.5 0C115.388 0 138.807 23.4163 138.807 52.3018Z" fill="#656565"/>
<path d="M173 72.8561C173 96.6838 153.682 116 129.852 116C106.022 116 86.7035 96.6838 86.7035 72.8561C86.7035 49.0284 106.022 29.7123 129.852 29.7123C153.682 29.7123 173 49.0284 173 72.8561Z" fill="#656565"/>
<path d="M39.0776 67.5649H131.887V116H39.0776V67.5649Z" fill="#656565"/>
</svg>
