<?xml version="1.0" standalone="no"?>
<!DOCTYPE svg PUBLIC "-//W3C//DTD SVG 20010904//EN"
 "http://www.w3.org/TR/2001/REC-SVG-20010904/DTD/svg10.dtd">
<svg version="1.0" xmlns="http://www.w3.org/2000/svg"
 width="512.000000pt" height="512.000000pt" viewBox="0 0 512.000000 512.000000"
 preserveAspectRatio="xMidYMid meet">

<g transform="translate(0.000000,512.000000) scale(0.100000,-0.100000)"
fill="#000000" stroke="none">
<path d="M1925 4299 c-66 -39 -249 -145 -407 -235 l-286 -165 -49 49 c-213
213 -552 213 -763 0 -65 -66 -121 -169 -140 -259 -17 -78 -8 -220 18 -294 62
-169 215 -303 389 -340 93 -20 156 -19 248 5 43 11 79 19 80 18 35 -59 286
-499 290 -509 3 -8 -46 -102 -108 -209 -62 -107 -127 -220 -145 -251 l-32 -57
56 -32 c31 -17 57 -30 59 -28 1 2 59 101 128 221 l125 217 102 -176 c56 -97
100 -177 98 -179 -2 -2 -80 -47 -173 -102 l-170 -98 30 -52 c16 -29 34 -52 38
-53 5 0 83 43 174 96 91 52 169 92 173 87 5 -4 136 -230 292 -501 l285 -493
-51 -52 -51 -53 -40 22 c-22 11 -205 116 -406 233 -202 116 -371 211 -375 211
-5 -1 -23 -24 -39 -53 l-31 -53 71 -40 c38 -23 224 -129 411 -238 l341 -196
-15 -43 c-9 -23 -17 -89 -20 -147 -4 -94 -1 -114 22 -184 47 -139 137 -246
261 -308 85 -43 147 -58 248 -58 241 0 440 152 511 389 22 76 21 213 -3 290
l-19 60 412 237 c226 130 414 239 418 241 4 2 29 -19 56 -46 278 -278 750
-174 884 194 26 75 35 216 18 294 -43 197 -211 365 -407 406 -93 20 -156 19
-248 -5 -43 -11 -79 -19 -80 -18 -44 69 -289 508 -289 518 0 11 268 490 290
519 2 2 9 -1 16 -7 22 -17 176 -35 249 -28 219 20 409 181 464 393 19 74 19
203 0 278 -84 323 -447 486 -753 339 -75 -36 -189 -133 -175 -149 27 -29 -82
30 -435 234 -221 127 -405 231 -411 231 -6 0 -11 -5 -11 -10 0 -6 -11 -28 -25
-50 -14 -22 -25 -42 -25 -44 0 -2 181 -109 403 -236 221 -128 409 -239 417
-247 11 -10 12 -16 4 -21 -20 -12 -36 -93 -37 -177 -1 -88 21 -215 37 -215 6
0 -72 -48 -173 -106 -101 -58 -187 -102 -192 -97 -4 4 -132 224 -284 488 -152
264 -280 484 -285 488 -6 7 -110 -48 -110 -59 0 -2 126 -223 280 -490 154
-266 281 -489 283 -495 1 -6 -78 -57 -175 -113 l-177 -102 -60 57 c-102 99
-226 149 -372 149 -151 0 -290 -59 -387 -164 l-40 -43 -178 103 c-99 56 -178
107 -177 113 2 6 129 229 283 495 154 267 280 488 280 490 0 11 -103 66 -110
59 -5 -4 -133 -224 -285 -488 -152 -264 -280 -484 -284 -488 -10 -10 -361 191
-361 206 0 7 7 35 16 62 21 66 21 214 0 280 -9 28 -16 55 -16 61 0 7 82 59
183 117 100 58 281 162 402 232 121 70 224 130 228 135 5 4 -3 26 -17 49 -14
22 -26 45 -26 51 0 20 -26 9 -145 -61z m-515 -1150 c96 -55 176 -102 178 -104
2 -2 -42 -82 -98 -179 l-102 -176 -120 207 c-66 115 -125 217 -130 229 -8 18
-3 29 39 72 26 27 50 50 53 51 3 1 84 -44 180 -100z m2578 -1 c4 -2 -52 -105
-124 -231 l-132 -227 -102 176 c-56 97 -100 177 -98 179 2 2 81 48 177 104
l175 101 48 -50 c27 -27 52 -50 56 -52z m-2067 -294 l147 -84 -19 -61 c-13
-40 -19 -91 -19 -149 0 -58 6 -109 19 -149 l19 -61 -147 -84 c-80 -46 -162
-93 -181 -104 l-35 -21 -118 203 c-64 111 -117 209 -117 216 0 7 53 105 117
216 l118 203 35 -21 c19 -11 101 -58 181 -104z m1627 -105 c56 -97 102 -182
102 -189 0 -7 -53 -105 -117 -216 l-118 -203 -35 21 c-19 11 -101 58 -181 104
l-147 84 19 61 c25 82 26 216 0 298 l-19 60 181 105 181 104 16 -27 c9 -14 62
-105 118 -202z m434 -755 c8 -18 2 -29 -42 -73 l-52 -52 -167 95 c-91 53 -172
100 -179 105 -11 6 9 49 88 185 l102 176 120 -207 c66 -115 125 -217 130 -229z
m-1671 95 c88 -44 150 -59 250 -59 143 0 269 50 370 149 l60 57 177 -102 c97
-56 176 -107 175 -113 -2 -6 -129 -230 -284 -498 -155 -268 -283 -491 -285
-494 -2 -4 -31 2 -65 12 -82 26 -216 26 -298 0 -34 -10 -63 -16 -65 -12 -2 3
-130 226 -285 494 -155 268 -282 492 -284 498 -1 5 78 56 175 113 l178 102 59
-57 c32 -32 87 -72 122 -90z m1334 -230 c96 -56 175 -106 175 -112 0 -7 -7
-34 -16 -62 -22 -69 -21 -205 1 -283 10 -34 15 -65 11 -69 -3 -4 -191 -113
-417 -244 l-411 -238 -25 29 c-13 16 -37 40 -53 53 l-28 24 265 459 c329 571
313 544 318 544 3 0 83 -45 180 -101z"/>
</g>
</svg>
