<svg width="4632" height="4632" viewBox="0 0 4632 4632" fill="none" xmlns="http://www.w3.org/2000/svg">
<path d="M3853.33 781.585C3655.59 583.848 3376.43 552.83 3046.86 552.83H1581.27C1255.59 552.83 976.426 583.848 778.689 781.585C580.944 979.321 551.87 1256.55 551.87 1580.3V3045.89C551.87 3377.39 580.944 3652.68 778.689 3850.42C976.426 4048.15 1255.59 4079.17 1587.09 4079.17H3046.86C3376.43 4079.17 3655.59 4048.15 3853.33 3850.42C4051.07 3652.68 4080.13 3377.39 4080.13 3045.89V1586.11C4080.13 1254.61 4051.07 977.386 3853.33 781.585Z" fill="url(#paint0_radial_368_66)"/>
<circle cx="2306.15" cy="2316.21" r="971.449" fill="#584BEB"/>
<path d="M2084.63 2819.82C1995.22 2814.05 1795.16 2824.78 1634.1 3017.69C1709.67 3085.18 1762.16 3131.33 1886.19 3192.48C1960.22 3156.91 2201.16 3024.96 2415.76 3014.8C2524.78 3010 2786.91 2976.84 2963.21 2882.7C3023.78 2843.47 3056.08 2827.32 3147.23 2802.51C3204.91 2698.1 3216.45 2658.87 3235.49 2600.03L2562.86 2799.05C2441.72 2833.09 2375.95 2861.93 2084.63 2819.82Z" fill="#6E66FB"/>
<path d="M2885.33 2043.45L3097.06 1987.4" stroke="#6F65FF" stroke-width="60" stroke-linecap="round"/>
<path d="M2982.24 2415.44L3212.44 2354.29" stroke="#6F65FF" stroke-width="60" stroke-linecap="round"/>
<path d="M2598.05 1389.18L1540.65 1718C1606.41 1637.24 1755.82 1464.05 2024.64 1382.73C2264.16 1310.28 2521.52 1355.53 2598.05 1389.18Z" fill="#7165FF"/>
<path d="M1751.78 2524.46L1395.85 2654.26C1412 2695.22 1420.66 2720.02 1467.38 2805.4L1938.69 2615.61C1989.83 2605.23 2107.48 2590.69 2168.86 2615.61C2253.66 2664.26 2464.91 2711.72 2631.51 2512.35C2704.77 2418.32 2749.19 2365.25 2902.06 2315.64L3271.83 2213.53C3265.49 2150.08 3264.91 2160.46 3247.6 2071.62L3033.58 2134.5C2947.05 2152.96 2770.07 2237.41 2461.33 2152.96C2397.49 2143.34 2239.58 2162.42 2118.67 2315.64C2101.17 2350.83 2003.29 2441.86 1751.78 2524.46Z" fill="#6E67FC"/>
<ellipse cx="2401.77" cy="2396.96" rx="157.436" ry="94.4369" transform="rotate(-27.7616 2401.77 2396.96)" fill="#8A83FF"/>
<ellipse cx="2313.65" cy="1658.46" rx="133.694" ry="74.2072" transform="rotate(-27.7616 2313.65 1658.46)" fill="#7165FF"/>
<path d="M1371.04 2051.43C1333.72 2200.64 1335.28 2200.84 1335.28 2347.36C1764.07 2105.46 1804.27 2091.61 2251.35 1907.79C2223.85 1873.75 2117.69 1840.72 1883.71 1899.33L1371.04 2051.43Z" fill="#7264FF"/>
<path d="M2608.43 1648.77C2563.44 1731.84 2559.4 1783.76 2458.45 1852.41C2758.99 1757.8 2694.39 1814.34 3074.54 1722.04C3038.2 1669.54 2968.4 1592.24 2865.14 1521.86C2760.73 1547.25 2679.39 1552.44 2608.43 1648.77Z" fill="#7166FF"/>
<path d="M2259.5 1901.91C618.596 2366.73 126.003 3125.99 1568.71 2946.08C1514.2 2886.39 1457.26 2787.69 1426.72 2725.43C507.048 2855.94 1495.58 2355.58 2321.86 2105.87C3148.14 1856.16 4058.67 1778.13 3264.54 2152.19C3273.35 2191.17 3284.6 2302.72 3274.55 2406.08C4484.58 1787.55 3900.4 1437.09 2259.5 1901.91Z" fill="white"/>
<defs>
<radialGradient id="paint0_radial_368_66" cx="0" cy="0" r="1" gradientUnits="userSpaceOnUse" gradientTransform="translate(2316 2316) rotate(90) scale(1763.17 1764.13)">
<stop offset="0.0459576" stop-color="#5736B3"/>
<stop offset="1" stop-color="#140932"/>
</radialGradient>
</defs>
</svg>
