<?xml version="1.0" encoding="UTF-8"?>
<!DOCTYPE svg PUBLIC "-//W3C//DTD SVG 1.1//EN" "http://www.w3.org/Graphics/SVG/1.1/DTD/svg11.dtd">
<svg xmlns="http://www.w3.org/2000/svg" version="1.1" width="2099px" height="2100px" style="shape-rendering:geometricPrecision; text-rendering:geometricPrecision; image-rendering:optimizeQuality; fill-rule:evenodd; clip-rule:evenodd" xmlns:xlink="http://www.w3.org/1999/xlink">
<g><path style="opacity:0.997" fill="#343fa4" d="M 1400.5,564.5 C 1065.93,650.885 750.265,781.885 453.5,957.5C 480.563,799.128 556.897,670.628 682.5,572C 824.188,467.749 982.188,430.082 1156.5,459C 1246.3,475.511 1327.63,510.678 1400.5,564.5 Z"/></g>
<g><path style="opacity:0.997" fill="#d1d5fe" d="M 1640.5,1141.5 C 1639.85,1140.55 1639.51,1139.38 1639.5,1138C 1643.55,1113.67 1645.88,1089.17 1646.5,1064.5C 1647.18,1056.1 1647.85,1047.6 1648.5,1039C 1725.82,990.656 1798.49,935.989 1866.5,875C 1889.47,852.699 1910.97,829.199 1931,804.5C 1945.2,786.109 1956.87,766.109 1966,744.5C 1986.68,689.501 1970.18,650.334 1916.5,627C 1889.5,616.337 1861.5,610.003 1832.5,608C 1789.5,604.676 1746.5,604.676 1703.5,608C 1609.98,617.396 1517.65,633.396 1426.5,656C 1356.45,673.346 1287.12,693.179 1218.5,715.5C 1217.83,715.167 1217.17,714.833 1216.5,714.5C 1203.62,684.101 1181.46,664.768 1150,656.5C 1138.48,655.351 1126.48,655.351 1114,656.5C 1084.83,666.89 1055.83,678.556 1027,691.5C 1025.98,690.366 1025.32,690.699 1025,692.5C 1015.32,693.801 1008.49,699.135 1004.5,708.5C 1003.66,719.305 1008.33,726.805 1018.5,731C 1021.83,731.667 1025.17,731.667 1028.5,731C 1058.51,719.331 1088.01,707.164 1117,694.5C 1140.04,689.641 1159.37,696.641 1175,715.5C 1188.15,737.623 1187.48,759.289 1173,780.5C 1165.92,788.198 1158.58,793.198 1151,795.5C 1140.86,801.091 1130.53,805.424 1120,808.5C 1079.2,826.389 1037.2,843.723 994,860.5C 987.333,860.5 980.667,860.5 974,860.5C 962.175,857.819 952.009,851.819 943.5,842.5C 938.821,835.134 934.154,827.8 929.5,820.5C 917.135,813.081 907.302,815.748 900,828.5C 897.85,833.14 898.016,837.64 900.5,842C 916.166,877.664 943.999,896.497 984,898.5C 987.873,898.092 991.54,898.092 995,898.5C 997.333,897.833 999.667,897.167 1002,896.5C 1002.33,896.833 1002.67,897.167 1003,897.5C 1053.59,878.119 1104.59,857.119 1156,834.5C 1187.55,824.622 1208.71,803.789 1219.5,772C 1219.04,771.586 1218.71,771.086 1218.5,770.5C 1221.08,765.279 1222.42,759.945 1222.5,754.5C 1221.06,752.561 1221.4,750.894 1223.5,749.5C 1358.49,703.753 1496.49,670.253 1637.5,649C 1700.57,639.844 1763.91,637.177 1827.5,641C 1857.94,642.902 1886.94,650.235 1914.5,663C 1925.05,669.217 1933.22,677.717 1939,688.5C 1941.95,697.72 1942.28,707.053 1940,716.5C 1933.2,740.113 1922.2,761.446 1907,780.5C 1879.27,815.229 1848.44,847.062 1814.5,876C 1761.09,921.282 1704.93,962.782 1646,1000.5C 1645.62,999.944 1645.12,999.611 1644.5,999.5C 1642.32,970.092 1637.65,941.092 1630.5,912.5C 1630.62,911.893 1630.96,911.56 1631.5,911.5C 1684.56,876.635 1733.73,836.635 1779,791.5C 1789.22,780.053 1798.22,767.72 1806,754.5C 1809.64,747.915 1810.98,740.915 1810,733.5C 1807.06,729.574 1803.23,726.74 1798.5,725C 1774.47,717.328 1749.8,713.828 1724.5,714.5C 1675.8,716.189 1627.47,721.355 1579.5,730C 1452.07,755.224 1327.07,789.558 1204.5,833C 998.716,904.728 800.383,993.061 609.5,1098C 534.6,1139.6 462.933,1185.93 394.5,1237C 364.516,1259.98 336.683,1285.48 311,1313.5C 299.893,1325.95 291.227,1339.95 285,1355.5C 283.747,1360.8 284.58,1365.63 287.5,1370C 297.958,1376.38 309.291,1380.38 321.5,1382C 364.591,1385.76 407.591,1384.76 450.5,1379C 479.948,1375.04 509.281,1370.54 538.5,1365.5C 553.784,1390.4 570.784,1414.07 589.5,1436.5C 514.5,1453.05 438.5,1463.88 361.5,1469C 337.167,1469.67 312.833,1469.67 288.5,1469C 259.092,1467.88 230.426,1462.88 202.5,1454C 187.219,1449.03 174.385,1440.53 164,1428.5C 156.974,1415.09 155.641,1401.09 160,1386.5C 164.728,1372.38 171.062,1359.04 179,1346.5C 194.512,1323.18 212.179,1301.51 232,1281.5C 283.381,1231.09 338.548,1185.59 397.5,1145C 505.087,1071.67 617.754,1006.17 735.5,948.5C 764.591,973.813 796.924,980.647 832.5,969C 857.529,958.603 881.863,948.603 905.5,939C 917.239,928.422 917.239,917.756 905.5,907C 900.282,904.844 895.449,903.677 891,903.5C 878.56,908.902 865.893,914.568 853,920.5C 852.667,920.167 852.333,919.833 852,919.5C 836.967,927.184 821.301,933.184 805,937.5C 801.475,936.554 797.809,936.554 794,937.5C 763.366,930.226 747.533,911.06 746.5,880C 749.243,857.623 761.243,841.956 782.5,833C 827.22,814.782 871.553,796.448 915.5,778C 938.027,770.664 957.86,775.83 975,793.5C 979.585,801.005 984.418,808.338 989.5,815.5C 999.842,821.913 1009.01,820.247 1017,810.5C 1020.33,803.833 1020.33,797.167 1017,790.5C 1002.47,761.954 979.801,744.288 949,737.5C 947.602,738.051 946.268,738.384 945,738.5C 943.333,737.833 941.667,737.167 940,736.5C 936.638,736.557 933.638,736.557 931,736.5C 920.447,737.512 909.613,740.012 898.5,744C 850.344,763.887 802.011,784.22 753.5,805C 721.37,827.132 706.703,857.466 709.5,896C 711.167,904.334 713.833,912.334 717.5,920C 589.066,983.01 466.733,1055.34 350.5,1137C 306.289,1168.8 264.289,1203.47 224.5,1241C 194.177,1269.63 168.01,1301.47 146,1336.5C 102.457,1414.22 123.29,1465.72 208.5,1491C 257.539,1502.25 307.205,1506.25 357.5,1503C 444.814,1497.13 531.147,1484.63 616.5,1465.5C 626.661,1476.49 637.328,1486.99 648.5,1497C 663.734,1509.42 678.734,1521.92 693.5,1534.5C 601.964,1557.48 509.297,1574.31 415.5,1585C 342.851,1593.13 270.185,1593.47 197.5,1586C 160.043,1581.64 124.043,1571.97 89.5,1557C 61.2561,1544.42 38.0895,1525.59 20,1500.5C 9.14499,1482.82 2.31166,1463.82 -0.5,1443.5C -0.5,1432.83 -0.5,1422.17 -0.5,1411.5C 4.20267,1381.23 14.036,1352.56 29,1325.5C 51.4884,1287.67 77.8217,1252.67 108,1220.5C 153.567,1173.24 202.4,1130.08 254.5,1091C 318.448,1043.02 384.782,998.52 453.5,957.5C 750.265,781.885 1065.93,650.885 1400.5,564.5C 1486.49,543.003 1573.49,526.836 1661.5,516C 1728.64,507.524 1795.97,505.191 1863.5,509C 1910.86,511.471 1956.52,521.471 2000.5,539C 2078.13,574.103 2107.3,633.269 2088,716.5C 2076.08,753.677 2058.41,787.677 2035,818.5C 1993.68,871.489 1947.18,919.655 1895.5,963C 1815.34,1029.41 1730.34,1088.91 1640.5,1141.5 Z"/></g>
<g><path style="opacity:1" fill="#969ffd" d="M 1646.5,1064.5 C 1646.87,1042.77 1646.2,1021.1 1644.5,999.5C 1645.12,999.611 1645.62,999.944 1646,1000.5C 1704.93,962.782 1761.09,921.282 1814.5,876C 1848.44,847.062 1879.27,815.229 1907,780.5C 1922.2,761.446 1933.2,740.113 1940,716.5C 1942.28,707.053 1941.95,697.72 1939,688.5C 1933.22,677.717 1925.05,669.217 1914.5,663C 1886.94,650.235 1857.94,642.902 1827.5,641C 1763.91,637.177 1700.57,639.844 1637.5,649C 1496.49,670.253 1358.49,703.753 1223.5,749.5C 1221.4,750.894 1221.06,752.561 1222.5,754.5C 1222.42,759.945 1221.08,765.279 1218.5,770.5C 1218.71,771.086 1219.04,771.586 1219.5,772C 1208.71,803.789 1187.55,824.622 1156,834.5C 1104.59,857.119 1053.59,878.119 1003,897.5C 1002.67,897.167 1002.33,896.833 1002,896.5C 999.667,897.167 997.333,897.833 995,898.5C 991.54,898.092 987.873,898.092 984,898.5C 943.999,896.497 916.166,877.664 900.5,842C 898.016,837.64 897.85,833.14 900,828.5C 907.302,815.748 917.135,813.081 929.5,820.5C 934.154,827.8 938.821,835.134 943.5,842.5C 952.009,851.819 962.175,857.819 974,860.5C 980.667,860.5 987.333,860.5 994,860.5C 1037.2,843.723 1079.2,826.389 1120,808.5C 1130.53,805.424 1140.86,801.091 1151,795.5C 1158.58,793.198 1165.92,788.198 1173,780.5C 1187.48,759.289 1188.15,737.623 1175,715.5C 1159.37,696.641 1140.04,689.641 1117,694.5C 1088.01,707.164 1058.51,719.331 1028.5,731C 1025.17,731.667 1021.83,731.667 1018.5,731C 1008.33,726.805 1003.66,719.305 1004.5,708.5C 1008.49,699.135 1015.32,693.801 1025,692.5C 1025.32,690.699 1025.98,690.366 1027,691.5C 1055.83,678.556 1084.83,666.89 1114,656.5C 1126.48,655.351 1138.48,655.351 1150,656.5C 1181.46,664.768 1203.62,684.101 1216.5,714.5C 1217.17,714.833 1217.83,715.167 1218.5,715.5C 1287.12,693.179 1356.45,673.346 1426.5,656C 1517.65,633.396 1609.98,617.396 1703.5,608C 1746.5,604.676 1789.5,604.676 1832.5,608C 1861.5,610.003 1889.5,616.337 1916.5,627C 1970.18,650.334 1986.68,689.501 1966,744.5C 1956.87,766.109 1945.2,786.109 1931,804.5C 1910.97,829.199 1889.47,852.699 1866.5,875C 1798.49,935.989 1725.82,990.656 1648.5,1039C 1647.85,1047.6 1647.18,1056.1 1646.5,1064.5 Z"/></g>
<g><path style="opacity:1" fill="#969ffc" d="M 1631.5,911.5 C 1624.63,881.045 1615.13,851.379 1603,822.5C 1602.61,821.572 1601.95,820.905 1601,820.5C 1583.96,817.623 1566.79,816.79 1549.5,818C 1500.82,823.812 1452.82,833.145 1405.5,846C 1320.58,868.974 1236.91,895.974 1154.5,927C 1034.48,972.007 916.818,1022.51 801.5,1078.5C 735.24,1110.62 670.906,1145.79 608.5,1184C 578.42,1202.71 549.754,1223.37 522.5,1246C 512.223,1255.27 503.057,1265.44 495,1276.5C 493.699,1278.36 493.365,1280.36 494,1282.5C 506.104,1310.04 519.771,1336.71 535,1362.5C 536.145,1363.64 537.312,1364.64 538.5,1365.5C 509.281,1370.54 479.948,1375.04 450.5,1379C 407.591,1384.76 364.591,1385.76 321.5,1382C 309.291,1380.38 297.958,1376.38 287.5,1370C 284.58,1365.63 283.747,1360.8 285,1355.5C 291.227,1339.95 299.893,1325.95 311,1313.5C 336.683,1285.48 364.516,1259.98 394.5,1237C 462.933,1185.93 534.6,1139.6 609.5,1098C 800.383,993.061 998.716,904.728 1204.5,833C 1327.07,789.558 1452.07,755.224 1579.5,730C 1627.47,721.355 1675.8,716.189 1724.5,714.5C 1749.8,713.828 1774.47,717.328 1798.5,725C 1803.23,726.74 1807.06,729.574 1810,733.5C 1810.98,740.915 1809.64,747.915 1806,754.5C 1798.22,767.72 1789.22,780.053 1779,791.5C 1733.73,836.635 1684.56,876.635 1631.5,911.5 Z"/></g>
<g><path style="opacity:1" fill="#969ffd" d="M 589.5,1436.5 C 598.761,1445.77 607.761,1455.43 616.5,1465.5C 531.147,1484.63 444.814,1497.13 357.5,1503C 307.205,1506.25 257.539,1502.25 208.5,1491C 123.29,1465.72 102.457,1414.22 146,1336.5C 168.01,1301.47 194.177,1269.63 224.5,1241C 264.289,1203.47 306.289,1168.8 350.5,1137C 466.733,1055.34 589.066,983.01 717.5,920C 713.833,912.334 711.167,904.334 709.5,896C 706.703,857.466 721.37,827.132 753.5,805C 802.011,784.22 850.344,763.887 898.5,744C 909.613,740.012 920.447,737.512 931,736.5C 933.638,736.557 936.638,736.557 940,736.5C 941.667,737.167 943.333,737.833 945,738.5C 946.268,738.384 947.602,738.051 949,737.5C 979.801,744.288 1002.47,761.954 1017,790.5C 1020.33,797.167 1020.33,803.833 1017,810.5C 1009.01,820.247 999.842,821.913 989.5,815.5C 984.418,808.338 979.585,801.005 975,793.5C 957.86,775.83 938.027,770.664 915.5,778C 871.553,796.448 827.22,814.782 782.5,833C 761.243,841.956 749.243,857.623 746.5,880C 747.533,911.06 763.366,930.226 794,937.5C 797.809,936.554 801.475,936.554 805,937.5C 821.301,933.184 836.967,927.184 852,919.5C 852.333,919.833 852.667,920.167 853,920.5C 865.893,914.568 878.56,908.902 891,903.5C 895.449,903.677 900.282,904.844 905.5,907C 917.239,917.756 917.239,928.422 905.5,939C 881.863,948.603 857.529,958.603 832.5,969C 796.924,980.647 764.591,973.813 735.5,948.5C 617.754,1006.17 505.087,1071.67 397.5,1145C 338.548,1185.59 283.381,1231.09 232,1281.5C 212.179,1301.51 194.512,1323.18 179,1346.5C 171.062,1359.04 164.728,1372.38 160,1386.5C 155.641,1401.09 156.974,1415.09 164,1428.5C 174.385,1440.53 187.219,1449.03 202.5,1454C 230.426,1462.88 259.092,1467.88 288.5,1469C 312.833,1469.67 337.167,1469.67 361.5,1469C 438.5,1463.88 514.5,1453.05 589.5,1436.5 Z"/></g>
<g><path style="opacity:0.999" fill="#5666fe" d="M 1631.5,911.5 C 1630.96,911.56 1630.62,911.893 1630.5,912.5C 1637.65,941.092 1642.32,970.092 1644.5,999.5C 1646.2,1021.1 1646.87,1042.77 1646.5,1064.5C 1645.88,1089.17 1643.55,1113.67 1639.5,1138C 1639.51,1139.38 1639.85,1140.55 1640.5,1141.5C 1614.67,1297.07 1540.67,1423.9 1418.5,1522C 1285.95,1623.11 1136.61,1663.95 970.5,1644.5C 972.355,1644.73 973.188,1644.06 973,1642.5C 858.069,1530.92 796.402,1394.59 788,1233.5C 786.058,1181.24 790.558,1129.57 801.5,1078.5C 916.818,1022.51 1034.48,972.007 1154.5,927C 1236.91,895.974 1320.58,868.974 1405.5,846C 1452.82,833.145 1500.82,823.812 1549.5,818C 1566.79,816.79 1583.96,817.623 1601,820.5C 1601.95,820.905 1602.61,821.572 1603,822.5C 1615.13,851.379 1624.63,881.045 1631.5,911.5 Z"/></g>
<g><path style="opacity:1" fill="#343fa4" d="M 801.5,1078.5 C 790.558,1129.57 786.058,1181.24 788,1233.5C 796.402,1394.59 858.069,1530.92 973,1642.5C 973.188,1644.06 972.355,1644.73 970.5,1644.5C 868.327,1631.68 775.993,1595.02 693.5,1534.5C 678.734,1521.92 663.734,1509.42 648.5,1497C 637.328,1486.99 626.661,1476.49 616.5,1465.5C 607.761,1455.43 598.761,1445.77 589.5,1436.5C 570.784,1414.07 553.784,1390.4 538.5,1365.5C 537.312,1364.64 536.145,1363.64 535,1362.5C 519.771,1336.71 506.104,1310.04 494,1282.5C 493.365,1280.36 493.699,1278.36 495,1276.5C 503.057,1265.44 512.223,1255.27 522.5,1246C 549.754,1223.37 578.42,1202.71 608.5,1184C 670.906,1145.79 735.24,1110.62 801.5,1078.5 Z"/></g>
</svg>
