<?xml version="1.0" encoding="UTF-8"?>
<!DOCTYPE svg PUBLIC "-//W3C//DTD SVG 1.1//EN" "http://www.w3.org/Graphics/SVG/1.1/DTD/svg11.dtd">
<svg xmlns="http://www.w3.org/2000/svg" version="1.1" width="2099px" height="2100px" style="shape-rendering:geometricPrecision; text-rendering:geometricPrecision; image-rendering:optimizeQuality; fill-rule:evenodd; clip-rule:evenodd" xmlns:xlink="http://www.w3.org/1999/xlink">
<g><path style="opacity:0.997" fill="#343fa4" d="M 1400.5,564.5 C 1341.14,579.504 1282.14,596.171 1223.5,614.5C 1201.04,619.386 1179.37,625.886 1158.5,634C 1124.54,644.874 1090.88,656.541 1057.5,669C 1040.67,680.994 1037.84,695.828 1049,713.5C 1051.4,716.067 1053.9,718.4 1056.5,720.5C 1055.83,720.5 1055.5,720.833 1055.5,721.5C 1040.63,730.696 1026.3,740.696 1012.5,751.5C 1012.17,751.5 1011.83,751.5 1011.5,751.5C 992.136,738.886 971.302,729.886 949,724.5C 946.667,724.833 944.333,725.167 942,725.5C 940.667,724.833 939.333,724.167 938,723.5C 929.919,723.891 921.919,723.891 914,723.5C 911.098,725.211 908.098,725.544 905,724.5C 902,725.5 899,726.5 896,727.5C 894,727.5 892,727.5 890,727.5C 886.952,729.866 883.785,731.199 880.5,731.5C 879.914,731.291 879.414,730.957 879,730.5C 876.502,732.417 873.835,734.084 871,735.5C 868.945,735.152 866.945,735.819 865,737.5C 864.667,737.167 864.333,736.833 864,736.5C 858.914,739.938 853.581,742.938 848,745.5C 847.667,745.167 847.333,744.833 847,744.5C 844,746.5 841,748.5 838,750.5C 837.667,750.167 837.333,749.833 837,749.5C 834.896,751.738 832.562,752.738 830,752.5C 827,754.5 824,756.5 821,758.5C 820.667,758.167 820.333,757.833 820,757.5C 817.896,759.738 815.562,760.738 813,760.5C 810.046,762.483 807.046,764.483 804,766.5C 803.667,766.167 803.333,765.833 803,765.5C 792,771.167 781,776.833 770,782.5C 769.667,782.167 769.333,781.833 769,781.5C 763.759,784.689 758.425,787.689 753,790.5C 752.667,790.167 752.333,789.833 752,789.5C 743.95,793.697 735.616,798.031 727,802.5C 726.667,802.167 726.333,801.833 726,801.5C 720.914,804.938 715.581,807.938 710,810.5C 709.667,810.167 709.333,809.833 709,809.5C 706.08,812.629 702.746,814.296 699,814.5C 696.896,816.738 694.562,817.738 692,817.5C 689,819.5 686,821.5 683,823.5C 682.667,823.167 682.333,822.833 682,822.5C 679.896,824.738 677.562,825.738 675,825.5C 666.374,830.333 657.374,835.333 648,840.5C 647.667,840.167 647.333,839.833 647,839.5C 634.389,848.614 622.556,858.614 611.5,869.5C 557.866,897.312 505.199,926.645 453.5,957.5C 480.563,799.128 556.897,670.628 682.5,572C 824.188,467.749 982.188,430.082 1156.5,459C 1246.3,475.511 1327.63,510.678 1400.5,564.5 Z"/></g>
<g><path style="opacity:0.995" fill="#d1d5fe" d="M 1640.5,1141.5 C 1639.85,1140.55 1639.51,1139.38 1639.5,1138C 1643.55,1113.67 1645.88,1089.17 1646.5,1064.5C 1647.18,1056.1 1647.85,1047.6 1648.5,1039C 1725.82,990.656 1798.49,935.989 1866.5,875C 1889.47,852.699 1910.97,829.199 1931,804.5C 1945.2,786.109 1956.87,766.109 1966,744.5C 1986.68,689.501 1970.18,650.334 1916.5,627C 1885.58,615.342 1853.58,608.676 1820.5,607C 1791.85,605.51 1763.18,605.177 1734.5,606C 1678.47,609.727 1622.81,616.394 1567.5,626C 1496.22,639.32 1425.55,655.487 1355.5,674.5C 1341.19,656.373 1323.86,641.54 1303.5,630C 1293.11,625.203 1282.44,621.203 1271.5,618C 1259.65,616.206 1247.82,614.706 1236,613.5C 1234.67,614.167 1233.33,614.833 1232,615.5C 1229.3,614.617 1226.47,614.284 1223.5,614.5C 1282.14,596.171 1341.14,579.504 1400.5,564.5C 1486.49,543.003 1573.49,526.836 1661.5,516C 1728.64,507.524 1795.97,505.191 1863.5,509C 1910.86,511.471 1956.52,521.471 2000.5,539C 2078.13,574.103 2107.3,633.269 2088,716.5C 2076.08,753.677 2058.41,787.677 2035,818.5C 1993.68,871.489 1947.18,919.655 1895.5,963C 1815.34,1029.41 1730.34,1088.91 1640.5,1141.5 Z"/></g>
<g><path style="opacity:1" fill="#969ffd" d="M 1646.5,1064.5 C 1646.87,1042.77 1646.2,1021.1 1644.5,999.5C 1645.79,1000.5 1647.12,1000.33 1648.5,999C 1712.9,957.618 1773.9,911.618 1831.5,861C 1860.99,834.099 1887.83,804.932 1912,773.5C 1924.78,756.275 1934.11,737.275 1940,716.5C 1944.85,697.042 1939.35,681.209 1923.5,669C 1907.84,658.888 1890.84,651.888 1872.5,648C 1834.2,640.362 1795.53,637.362 1756.5,639C 1661.25,643.517 1567.25,656.85 1474.5,679C 1440.01,687.038 1405.68,695.538 1371.5,704.5C 1379.96,728.117 1383.12,752.45 1381,777.5C 1462.6,753.727 1545.43,735.227 1629.5,722C 1653.47,719.27 1677.47,716.937 1701.5,715C 1730.44,713.245 1759.11,715.245 1787.5,721C 1794.62,723.038 1801.29,726.038 1807.5,730C 1809.89,732.306 1810.89,735.139 1810.5,738.5C 1808.22,750.291 1803.39,760.958 1796,770.5C 1773.5,798.333 1748.33,823.5 1720.5,846C 1691.8,869.209 1662.13,891.042 1631.5,911.5C 1624.62,880.657 1614.95,850.657 1602.5,821.5C 1597.05,819.479 1591.38,818.312 1585.5,818C 1565.05,816.799 1544.72,817.799 1524.5,821C 1460.19,831.911 1396.86,846.911 1334.5,866C 1324.7,872.072 1315.03,878.406 1305.5,885C 1251.62,905.066 1197.62,924.066 1143.5,942C 1135.96,945.403 1128.46,947.903 1121,949.5C 1092.81,960.225 1064.64,970.059 1036.5,979C 986.47,989.94 941.636,977.773 902,942.5C 891.46,931.135 882.293,918.802 874.5,905.5C 870.162,896.483 866.828,887.149 864.5,877.5C 867.966,854.457 880.799,844.457 903,847.5C 905.659,849.246 908.492,850.58 911.5,851.5C 914.206,853.86 916.706,856.527 919,859.5C 934.522,902.96 965.022,924.127 1010.5,923C 1016.68,921.202 1023.01,919.868 1029.5,919C 1107.93,891.483 1186.27,864.483 1264.5,838C 1305.32,820.754 1324.32,790.254 1321.5,746.5C 1316.02,715.015 1298.68,692.848 1269.5,680C 1264.67,679.251 1260,677.917 1255.5,676C 1233.16,672.249 1211.66,675.749 1191,686.5C 1190.67,686.167 1190.33,685.833 1190,685.5C 1153.52,698.76 1117.52,711.427 1082,723.5C 1081.67,723.167 1081.33,722.833 1081,722.5C 1077.28,724.293 1073.62,725.293 1070,725.5C 1065.33,724.243 1060.83,722.577 1056.5,720.5C 1053.9,718.4 1051.4,716.067 1049,713.5C 1037.84,695.828 1040.67,680.994 1057.5,669C 1090.88,656.541 1124.54,644.874 1158.5,634C 1179.37,625.886 1201.04,619.386 1223.5,614.5C 1226.47,614.284 1229.3,614.617 1232,615.5C 1233.33,614.833 1234.67,614.167 1236,613.5C 1247.82,614.706 1259.65,616.206 1271.5,618C 1282.44,621.203 1293.11,625.203 1303.5,630C 1323.86,641.54 1341.19,656.373 1355.5,674.5C 1425.55,655.487 1496.22,639.32 1567.5,626C 1622.81,616.394 1678.47,609.727 1734.5,606C 1763.18,605.177 1791.85,605.51 1820.5,607C 1853.58,608.676 1885.58,615.342 1916.5,627C 1970.18,650.334 1986.68,689.501 1966,744.5C 1956.87,766.109 1945.2,786.109 1931,804.5C 1910.97,829.199 1889.47,852.699 1866.5,875C 1798.49,935.989 1725.82,990.656 1648.5,1039C 1647.85,1047.6 1647.18,1056.1 1646.5,1064.5 Z"/></g>
<g><path style="opacity:1" fill="#d1d5fe" d="M 1644.5,999.5 C 1642.32,970.092 1637.65,941.092 1630.5,912.5C 1630.62,911.893 1630.96,911.56 1631.5,911.5C 1662.13,891.042 1691.8,869.209 1720.5,846C 1748.33,823.5 1773.5,798.333 1796,770.5C 1803.39,760.958 1808.22,750.291 1810.5,738.5C 1810.89,735.139 1809.89,732.306 1807.5,730C 1801.29,726.038 1794.62,723.038 1787.5,721C 1759.11,715.245 1730.44,713.245 1701.5,715C 1677.47,716.937 1653.47,719.27 1629.5,722C 1545.43,735.227 1462.6,753.727 1381,777.5C 1383.12,752.45 1379.96,728.117 1371.5,704.5C 1405.68,695.538 1440.01,687.038 1474.5,679C 1567.25,656.85 1661.25,643.517 1756.5,639C 1795.53,637.362 1834.2,640.362 1872.5,648C 1890.84,651.888 1907.84,658.888 1923.5,669C 1939.35,681.209 1944.85,697.042 1940,716.5C 1934.11,737.275 1924.78,756.275 1912,773.5C 1887.83,804.932 1860.99,834.099 1831.5,861C 1773.9,911.618 1712.9,957.618 1648.5,999C 1647.12,1000.33 1645.79,1000.5 1644.5,999.5 Z"/></g>
<g><path style="opacity:1" fill="#5666ff" d="M 912.5,851.5 C 928.228,831.05 945.561,812.05 964.5,794.5C 978.64,801.468 989.807,811.801 998,825.5C 1005.23,844.693 1018.73,852.193 1038.5,848C 1044.98,845.15 1050.31,840.983 1054.5,835.5C 1060.64,825.447 1061.14,815.114 1056,804.5C 1045.72,783.229 1031.22,765.562 1012.5,751.5C 1026.3,740.696 1040.63,730.696 1055.5,721.5C 1060.32,724.158 1065.49,725.825 1071,726.5C 1075.22,725.923 1079.38,725.09 1083.5,724C 1129.63,707.511 1175.97,691.845 1222.5,677C 1262.22,671.449 1292.06,685.949 1312,720.5C 1325.22,747.66 1324.22,774.327 1309,800.5C 1301.45,812.055 1291.95,821.555 1280.5,829C 1274.71,831.394 1269.05,834.06 1263.5,837C 1187.87,862.21 1112.54,888.21 1037.5,915C 1006.98,927.023 978.309,923.69 951.5,905C 936.439,892.749 925.939,877.249 920,858.5C 917.931,855.594 915.431,853.261 912.5,851.5 Z"/></g>
<g><path style="opacity:1" fill="#969ffc" d="M 1011.5,751.5 C 1030.01,766.133 1044.51,784.133 1055,805.5C 1060.83,818.498 1058.66,830.332 1048.5,841C 1044.46,842.773 1040.62,844.94 1037,847.5C 1018.82,850.534 1006.15,842.867 999,824.5C 990.807,810.801 979.64,800.468 965.5,793.5C 959.438,789.475 952.771,786.475 945.5,784.5C 944.833,784.833 944.167,785.167 943.5,785.5C 939.967,784.042 936.301,783.042 932.5,782.5C 927.256,782.782 922.089,782.782 917,782.5C 914.034,783.554 911.034,784.554 908,785.5C 905.911,785.255 903.911,785.255 902,785.5C 894.417,788.466 887.417,791.799 881,795.5C 879.442,794.655 878.442,795.321 878,797.5C 875.438,797.262 873.104,798.262 871,800.5C 870.667,800.167 870.333,799.833 870,799.5C 866.546,801.662 863.546,803.662 861,805.5C 858.438,805.262 856.104,806.262 854,808.5C 850.254,808.704 846.92,810.371 844,813.5C 841.438,813.262 839.104,814.262 837,816.5C 836.667,816.167 836.333,815.833 836,815.5C 833.165,816.916 830.498,818.583 828,820.5C 827.667,820.167 827.333,819.833 827,819.5C 824.667,821.167 822.333,822.833 820,824.5C 819.667,824.167 819.333,823.833 819,823.5C 816.165,824.916 813.498,826.583 811,828.5C 810.667,828.167 810.333,827.833 810,827.5C 807.667,829.167 805.333,830.833 803,832.5C 801.984,831.366 801.317,831.699 801,833.5C 800.667,833.167 800.333,832.833 800,832.5C 798,833.833 796,835.167 794,836.5C 793.667,836.167 793.333,835.833 793,835.5C 790,837.5 787,839.5 784,841.5C 783.667,841.167 783.333,840.833 783,840.5C 781,841.833 779,843.167 777,844.5C 776.667,844.167 776.333,843.833 776,843.5C 773,845.5 770,847.5 767,849.5C 766.667,849.167 766.333,848.833 766,848.5C 764,849.833 762,851.167 760,852.5C 759.667,852.167 759.333,851.833 759,851.5C 756,853.5 753,855.5 750,857.5C 749.667,857.167 749.333,856.833 749,856.5C 747,857.833 745,859.167 743,860.5C 741.442,859.655 740.442,860.321 740,862.5C 737.438,862.262 735.104,863.262 733,865.5C 732.667,865.167 732.333,864.833 732,864.5C 726.695,868.274 721.362,871.274 716,873.5C 715.667,873.167 715.333,872.833 715,872.5C 712,874.5 709,876.5 706,878.5C 703.438,878.262 701.104,879.262 699,881.5C 659.413,895.147 638.246,923.314 635.5,966C 640.463,1010.15 664.796,1037.31 708.5,1047.5C 716.768,1047.77 724.601,1047.77 732,1047.5C 733.333,1046.83 734.667,1046.17 736,1045.5C 738,1045.5 740,1045.5 742,1045.5C 743.945,1043.82 745.945,1043.15 748,1043.5C 753.485,1041.72 758.485,1039.05 763,1035.5C 765.562,1035.74 767.896,1034.74 770,1032.5C 770.333,1032.83 770.667,1033.17 771,1033.5C 774,1031.5 777,1029.5 780,1027.5C 782.562,1027.74 784.896,1026.74 787,1024.5C 788.016,1025.63 788.683,1025.3 789,1023.5C 789.333,1023.83 789.667,1024.17 790,1024.5C 792.333,1022.83 794.667,1021.17 797,1019.5C 797.333,1019.83 797.667,1020.17 798,1020.5C 806.449,1016.03 814.949,1011.69 823.5,1007.5C 823.435,1007.94 823.601,1008.27 824,1008.5C 837.544,1001.39 850.877,994.728 864,988.5C 867.563,989.372 871.229,989.372 875,988.5C 896.279,994.753 904.279,1008.42 899,1029.5C 894.935,1037.6 888.935,1042.93 881,1045.5C 875.575,1048.31 870.241,1051.31 865,1054.5C 864.667,1054.17 864.333,1053.83 864,1053.5C 858.434,1056.91 853.101,1059.91 848,1062.5C 847.667,1062.17 847.333,1061.83 847,1061.5C 843.731,1064.14 840.398,1065.8 837,1066.5C 824.696,1072.4 812.529,1078.4 800.5,1084.5C 790.563,1088.1 780.729,1092.76 771,1098.5C 770.667,1098.17 770.333,1097.83 770,1097.5C 766.667,1098.83 763.333,1100.17 760,1101.5C 757.945,1101.15 755.945,1101.82 754,1103.5C 680.521,1138.66 610.687,1180.16 544.5,1228C 525.706,1241.79 509.206,1257.96 495,1276.5C 493.699,1278.36 493.365,1280.36 494,1282.5C 506.104,1310.04 519.771,1336.71 535,1362.5C 536.145,1363.64 537.312,1364.64 538.5,1365.5C 511.916,1369.99 485.249,1374.15 458.5,1378C 419.004,1383.39 379.337,1385.39 339.5,1384C 322.293,1383.43 305.96,1379.43 290.5,1372C 284.767,1368 282.934,1362.5 285,1355.5C 287.197,1348.77 290.197,1342.44 294,1336.5C 311.604,1311.55 332.104,1289.05 355.5,1269C 418.989,1216.58 486.322,1169.58 557.5,1128C 584.5,1112.5 611.5,1097 638.5,1081.5C 617.8,1066.63 601.967,1047.63 591,1024.5C 495.456,1077.5 404.622,1137.33 318.5,1204C 277.151,1236.68 238.985,1272.85 204,1312.5C 188.174,1331.47 174.841,1352.13 164,1374.5C 158.636,1386.65 156.636,1399.32 158,1412.5C 158.876,1418.25 160.876,1423.59 164,1428.5C 177.005,1442.46 192.839,1451.96 211.5,1457C 236.661,1463.88 262.328,1467.88 288.5,1469C 330.927,1470.51 373.26,1469.17 415.5,1465C 474.132,1458.44 532.132,1448.94 589.5,1436.5C 598.761,1445.77 607.761,1455.43 616.5,1465.5C 536.073,1483.58 454.74,1495.75 372.5,1502C 320.027,1506.4 268.027,1503.4 216.5,1493C 194.559,1488.02 174.225,1479.36 155.5,1467C 130.034,1447.28 119.867,1421.45 125,1389.5C 127.461,1376.99 131.461,1364.99 137,1353.5C 152.31,1323.87 171.31,1296.87 194,1272.5C 231.348,1232.96 271.514,1196.79 314.5,1164C 398.247,1100.94 486.247,1044.1 578.5,993.5C 579.262,992.372 579.929,991.205 580.5,990C 578.762,984.113 577.429,978.113 576.5,972C 576.76,966.944 576.76,961.777 576.5,956.5C 577.456,951.298 578.456,946.131 579.5,941C 578.863,937.865 579.529,934.865 581.5,932C 580.978,931.439 580.645,930.772 580.5,930C 584.077,920.192 587.577,910.358 591,900.5C 597.69,890.054 604.523,879.721 611.5,869.5C 622.556,858.614 634.389,848.614 647,839.5C 647.333,839.833 647.667,840.167 648,840.5C 657.374,835.333 666.374,830.333 675,825.5C 677.562,825.738 679.896,824.738 682,822.5C 682.333,822.833 682.667,823.167 683,823.5C 686,821.5 689,819.5 692,817.5C 694.562,817.738 696.896,816.738 699,814.5C 702.746,814.296 706.08,812.629 709,809.5C 709.333,809.833 709.667,810.167 710,810.5C 715.581,807.938 720.914,804.938 726,801.5C 726.333,801.833 726.667,802.167 727,802.5C 735.616,798.031 743.95,793.697 752,789.5C 752.333,789.833 752.667,790.167 753,790.5C 758.425,787.689 763.759,784.689 769,781.5C 769.333,781.833 769.667,782.167 770,782.5C 781,776.833 792,771.167 803,765.5C 803.333,765.833 803.667,766.167 804,766.5C 807.046,764.483 810.046,762.483 813,760.5C 815.562,760.738 817.896,759.738 820,757.5C 820.333,757.833 820.667,758.167 821,758.5C 824,756.5 827,754.5 830,752.5C 832.562,752.738 834.896,751.738 837,749.5C 837.333,749.833 837.667,750.167 838,750.5C 841,748.5 844,746.5 847,744.5C 847.333,744.833 847.667,745.167 848,745.5C 853.581,742.938 858.914,739.938 864,736.5C 864.333,736.833 864.667,737.167 865,737.5C 866.945,735.819 868.945,735.152 871,735.5C 873.835,734.084 876.502,732.417 879,730.5C 879.414,730.957 879.914,731.291 880.5,731.5C 883.785,731.199 886.952,729.866 890,727.5C 892,727.5 894,727.5 896,727.5C 899,726.5 902,725.5 905,724.5C 908.098,725.544 911.098,725.211 914,723.5C 921.919,723.891 929.919,723.891 938,723.5C 939.333,724.167 940.667,724.833 942,725.5C 944.333,725.167 946.667,724.833 949,724.5C 971.302,729.886 992.136,738.886 1011.5,751.5 Z"/></g>
<g><path style="opacity:1" fill="#4f5ded" d="M 1011.5,751.5 C 1011.83,751.5 1012.17,751.5 1012.5,751.5C 1031.22,765.562 1045.72,783.229 1056,804.5C 1061.14,815.114 1060.64,825.447 1054.5,835.5C 1050.31,840.983 1044.98,845.15 1038.5,848C 1018.73,852.193 1005.23,844.693 998,825.5C 989.807,811.801 978.64,801.468 964.5,794.5C 964.5,793.833 964.833,793.5 965.5,793.5C 979.64,800.468 990.807,810.801 999,824.5C 1006.15,842.867 1018.82,850.534 1037,847.5C 1040.62,844.94 1044.46,842.773 1048.5,841C 1058.66,830.332 1060.83,818.498 1055,805.5C 1044.51,784.133 1030.01,766.133 1011.5,751.5 Z"/></g>
<g><path style="opacity:1" fill="#343fa4" d="M 965.5,793.5 C 964.833,793.5 964.5,793.833 964.5,794.5C 945.561,812.05 928.228,831.05 912.5,851.5C 912.167,851.5 911.833,851.5 911.5,851.5C 908.492,850.58 905.659,849.246 903,847.5C 880.799,844.457 867.966,854.457 864.5,877.5C 866.828,887.149 870.162,896.483 874.5,905.5C 854.354,937.793 837.354,971.793 823.5,1007.5C 814.949,1011.69 806.449,1016.03 798,1020.5C 797.667,1020.17 797.333,1019.83 797,1019.5C 794.667,1021.17 792.333,1022.83 790,1024.5C 789.667,1024.17 789.333,1023.83 789,1023.5C 788.683,1025.3 788.016,1025.63 787,1024.5C 784.896,1026.74 782.562,1027.74 780,1027.5C 777,1029.5 774,1031.5 771,1033.5C 770.667,1033.17 770.333,1032.83 770,1032.5C 767.896,1034.74 765.562,1035.74 763,1035.5C 758.485,1039.05 753.485,1041.72 748,1043.5C 745.945,1043.15 743.945,1043.82 742,1045.5C 740,1045.5 738,1045.5 736,1045.5C 734.667,1046.17 733.333,1046.83 732,1047.5C 724.601,1047.77 716.768,1047.77 708.5,1047.5C 664.796,1037.31 640.463,1010.15 635.5,966C 638.246,923.314 659.413,895.147 699,881.5C 701.104,879.262 703.438,878.262 706,878.5C 709,876.5 712,874.5 715,872.5C 715.333,872.833 715.667,873.167 716,873.5C 721.362,871.274 726.695,868.274 732,864.5C 732.333,864.833 732.667,865.167 733,865.5C 735.104,863.262 737.438,862.262 740,862.5C 740.442,860.321 741.442,859.655 743,860.5C 745,859.167 747,857.833 749,856.5C 749.333,856.833 749.667,857.167 750,857.5C 753,855.5 756,853.5 759,851.5C 759.333,851.833 759.667,852.167 760,852.5C 762,851.167 764,849.833 766,848.5C 766.333,848.833 766.667,849.167 767,849.5C 770,847.5 773,845.5 776,843.5C 776.333,843.833 776.667,844.167 777,844.5C 779,843.167 781,841.833 783,840.5C 783.333,840.833 783.667,841.167 784,841.5C 787,839.5 790,837.5 793,835.5C 793.333,835.833 793.667,836.167 794,836.5C 796,835.167 798,833.833 800,832.5C 800.333,832.833 800.667,833.167 801,833.5C 801.317,831.699 801.984,831.366 803,832.5C 805.333,830.833 807.667,829.167 810,827.5C 810.333,827.833 810.667,828.167 811,828.5C 813.498,826.583 816.165,824.916 819,823.5C 819.333,823.833 819.667,824.167 820,824.5C 822.333,822.833 824.667,821.167 827,819.5C 827.333,819.833 827.667,820.167 828,820.5C 830.498,818.583 833.165,816.916 836,815.5C 836.333,815.833 836.667,816.167 837,816.5C 839.104,814.262 841.438,813.262 844,813.5C 846.92,810.371 850.254,808.704 854,808.5C 856.104,806.262 858.438,805.262 861,805.5C 863.546,803.662 866.546,801.662 870,799.5C 870.333,799.833 870.667,800.167 871,800.5C 873.104,798.262 875.438,797.262 878,797.5C 878.442,795.321 879.442,794.655 881,795.5C 887.417,791.799 894.417,788.466 902,785.5C 903.911,785.255 905.911,785.255 908,785.5C 911.034,784.554 914.034,783.554 917,782.5C 922.089,782.782 927.256,782.782 932.5,782.5C 936.301,783.042 939.967,784.042 943.5,785.5C 944.167,785.167 944.833,784.833 945.5,784.5C 952.771,786.475 959.438,789.475 965.5,793.5 Z"/></g>
<g><path style="opacity:0.999" fill="#5665fe" d="M 1631.5,911.5 C 1630.96,911.56 1630.62,911.893 1630.5,912.5C 1637.65,941.092 1642.32,970.092 1644.5,999.5C 1646.2,1021.1 1646.87,1042.77 1646.5,1064.5C 1645.88,1089.17 1643.55,1113.67 1639.5,1138C 1639.51,1139.38 1639.85,1140.55 1640.5,1141.5C 1614.67,1297.07 1540.67,1423.9 1418.5,1522C 1285.95,1623.11 1136.61,1663.95 970.5,1644.5C 972.355,1644.73 973.188,1644.06 973,1642.5C 858.069,1530.92 796.402,1394.59 788,1233.5C 786.082,1183.26 790.249,1133.6 800.5,1084.5C 812.529,1078.4 824.696,1072.4 837,1066.5C 840.398,1065.8 843.731,1064.14 847,1061.5C 847.333,1061.83 847.667,1062.17 848,1062.5C 853.101,1059.91 858.434,1056.91 864,1053.5C 864.333,1053.83 864.667,1054.17 865,1054.5C 870.241,1051.31 875.575,1048.31 881,1045.5C 888.935,1042.93 894.935,1037.6 899,1029.5C 904.279,1008.42 896.279,994.753 875,988.5C 871.229,989.372 867.563,989.372 864,988.5C 850.877,994.728 837.544,1001.39 824,1008.5C 823.601,1008.27 823.435,1007.94 823.5,1007.5C 837.354,971.793 854.354,937.793 874.5,905.5C 882.293,918.802 891.46,931.135 902,942.5C 941.636,977.773 986.47,989.94 1036.5,979C 1064.64,970.059 1092.81,960.225 1121,949.5C 1128.46,947.903 1135.96,945.403 1143.5,942C 1197.62,924.066 1251.62,905.066 1305.5,885C 1315.03,878.406 1324.7,872.072 1334.5,866C 1396.86,846.911 1460.19,831.911 1524.5,821C 1544.72,817.799 1565.05,816.799 1585.5,818C 1591.38,818.312 1597.05,819.479 1602.5,821.5C 1614.95,850.657 1624.62,880.657 1631.5,911.5 Z"/></g>
<g><path style="opacity:1" fill="#5161f3" d="M 911.5,851.5 C 911.833,851.5 912.167,851.5 912.5,851.5C 915.431,853.261 917.931,855.594 920,858.5C 925.939,877.249 936.439,892.749 951.5,905C 978.309,923.69 1006.98,927.023 1037.5,915C 1112.54,888.21 1187.87,862.21 1263.5,837C 1269.05,834.06 1274.71,831.394 1280.5,829C 1291.95,821.555 1301.45,812.055 1309,800.5C 1324.22,774.327 1325.22,747.66 1312,720.5C 1292.06,685.949 1262.22,671.449 1222.5,677C 1175.97,691.845 1129.63,707.511 1083.5,724C 1079.38,725.09 1075.22,725.923 1071,726.5C 1065.49,725.825 1060.32,724.158 1055.5,721.5C 1055.5,720.833 1055.83,720.5 1056.5,720.5C 1060.83,722.577 1065.33,724.243 1070,725.5C 1073.62,725.293 1077.28,724.293 1081,722.5C 1081.33,722.833 1081.67,723.167 1082,723.5C 1117.52,711.427 1153.52,698.76 1190,685.5C 1190.33,685.833 1190.67,686.167 1191,686.5C 1211.66,675.749 1233.16,672.249 1255.5,676C 1260,677.917 1264.67,679.251 1269.5,680C 1298.68,692.848 1316.02,715.015 1321.5,746.5C 1324.32,790.254 1305.32,820.754 1264.5,838C 1186.27,864.483 1107.93,891.483 1029.5,919C 1023.01,919.868 1016.68,921.202 1010.5,923C 965.022,924.127 934.522,902.96 919,859.5C 916.706,856.527 914.206,853.86 911.5,851.5 Z"/></g>
<g><path style="opacity:0.995" fill="#d1d5fe" d="M 611.5,869.5 C 604.523,879.721 597.69,890.054 591,900.5C 587.577,910.358 584.077,920.192 580.5,930C 580.645,930.772 580.978,931.439 581.5,932C 579.529,934.865 578.863,937.865 579.5,941C 578.456,946.131 577.456,951.298 576.5,956.5C 576.76,961.777 576.76,966.944 576.5,972C 577.429,978.113 578.762,984.113 580.5,990C 579.929,991.205 579.262,992.372 578.5,993.5C 486.247,1044.1 398.247,1100.94 314.5,1164C 271.514,1196.79 231.348,1232.96 194,1272.5C 171.31,1296.87 152.31,1323.87 137,1353.5C 131.461,1364.99 127.461,1376.99 125,1389.5C 119.867,1421.45 130.034,1447.28 155.5,1467C 174.225,1479.36 194.559,1488.02 216.5,1493C 268.027,1503.4 320.027,1506.4 372.5,1502C 454.74,1495.75 536.073,1483.58 616.5,1465.5C 626.661,1476.49 637.328,1486.99 648.5,1497C 663.734,1509.42 678.734,1521.92 693.5,1534.5C 601.964,1557.48 509.297,1574.31 415.5,1585C 342.851,1593.13 270.185,1593.47 197.5,1586C 160.043,1581.64 124.043,1571.97 89.5,1557C 61.2561,1544.42 38.0895,1525.59 20,1500.5C 9.14499,1482.82 2.31166,1463.82 -0.5,1443.5C -0.5,1432.83 -0.5,1422.17 -0.5,1411.5C 4.20267,1381.23 14.036,1352.56 29,1325.5C 51.4884,1287.67 77.8217,1252.67 108,1220.5C 153.567,1173.24 202.4,1130.08 254.5,1091C 318.448,1043.02 384.782,998.52 453.5,957.5C 505.199,926.645 557.866,897.312 611.5,869.5 Z"/></g>
<g><path style="opacity:1" fill="#d1d5fe" d="M 538.5,1365.5 C 553.784,1390.4 570.784,1414.07 589.5,1436.5C 532.132,1448.94 474.132,1458.44 415.5,1465C 373.26,1469.17 330.927,1470.51 288.5,1469C 262.328,1467.88 236.661,1463.88 211.5,1457C 192.839,1451.96 177.005,1442.46 164,1428.5C 160.876,1423.59 158.876,1418.25 158,1412.5C 156.636,1399.32 158.636,1386.65 164,1374.5C 174.841,1352.13 188.174,1331.47 204,1312.5C 238.985,1272.85 277.151,1236.68 318.5,1204C 404.622,1137.33 495.456,1077.5 591,1024.5C 601.967,1047.63 617.8,1066.63 638.5,1081.5C 611.5,1097 584.5,1112.5 557.5,1128C 486.322,1169.58 418.989,1216.58 355.5,1269C 332.104,1289.05 311.604,1311.55 294,1336.5C 290.197,1342.44 287.197,1348.77 285,1355.5C 282.934,1362.5 284.767,1368 290.5,1372C 305.96,1379.43 322.293,1383.43 339.5,1384C 379.337,1385.39 419.004,1383.39 458.5,1378C 485.249,1374.15 511.916,1369.99 538.5,1365.5 Z"/></g>
<g><path style="opacity:1" fill="#343fa4" d="M 800.5,1084.5 C 790.249,1133.6 786.082,1183.26 788,1233.5C 796.402,1394.59 858.069,1530.92 973,1642.5C 973.188,1644.06 972.355,1644.73 970.5,1644.5C 868.327,1631.68 775.993,1595.02 693.5,1534.5C 678.734,1521.92 663.734,1509.42 648.5,1497C 637.328,1486.99 626.661,1476.49 616.5,1465.5C 607.761,1455.43 598.761,1445.77 589.5,1436.5C 570.784,1414.07 553.784,1390.4 538.5,1365.5C 537.312,1364.64 536.145,1363.64 535,1362.5C 519.771,1336.71 506.104,1310.04 494,1282.5C 493.365,1280.36 493.699,1278.36 495,1276.5C 509.206,1257.96 525.706,1241.79 544.5,1228C 610.687,1180.16 680.521,1138.66 754,1103.5C 755.945,1101.82 757.945,1101.15 760,1101.5C 763.333,1100.17 766.667,1098.83 770,1097.5C 770.333,1097.83 770.667,1098.17 771,1098.5C 780.729,1092.76 790.563,1088.1 800.5,1084.5 Z"/></g>
</svg>
