<svg width="10999" height="7056" viewBox="0 0 10999 7056" fill="none" xmlns="http://www.w3.org/2000/svg">
<g clip-path="url(#clip0_392_2)">
<g filter="url(#filter0_d_392_2)">
<path d="M11269.9 -232.695C10544.2 -708.1 9519.66 -782.674 8310.15 -782.674H2931.41C1736.13 -782.674 711.606 -708.1 -14.0916 -232.695C-739.819 242.71 -846.521 909.224 -846.521 1687.6V5211.21C-846.521 6008.22 -739.819 6670.08 -14.0916 7145.49C711.606 7620.89 1736.13 7695.47 2952.75 7695.47H8310.15C9519.66 7695.47 10544.2 7620.89 11269.9 7145.49C11995.6 6670.08 12102.3 6008.22 12102.3 5211.21V1701.58C12102.3 904.57 11995.6 238.057 11269.9 -232.695Z" fill="url(#paint0_radial_392_2)"/>
</g>
<circle cx="5484.75" cy="3528.55" r="1388.45" fill="#584BEB"/>
<path d="M5168.14 4248.33C5040.35 4240.09 4754.41 4255.42 4524.21 4531.14C4632.22 4627.6 4707.25 4693.56 4884.52 4780.96C4990.33 4730.11 5334.69 4541.52 5641.41 4527.01C5797.24 4520.14 6171.89 4472.76 6423.85 4338.2C6510.43 4282.14 6556.6 4259.05 6686.87 4223.6C6769.32 4074.36 6785.81 4018.3 6813.02 3934.2L5851.65 4218.65C5678.51 4267.3 5584.52 4308.52 5168.14 4248.33Z" fill="#6E66FB"/>
<path d="M6312.55 3138.7L6615.17 3058.58" stroke="#6F65FF" stroke-width="60" stroke-linecap="round"/>
<path d="M6451.06 3670.36L6780.08 3582.96" stroke="#6F65FF" stroke-width="60" stroke-linecap="round"/>
<path d="M5901.95 2203.58L4390.64 2673.54C4484.64 2558.11 4698.18 2310.59 5082.4 2194.36C5424.73 2090.8 5792.56 2155.48 5901.95 2203.58Z" fill="#7165FF"/>
<path d="M4692.41 3826.19L4183.69 4011.7C4206.78 4070.24 4219.15 4105.69 4285.93 4227.72L4959.55 3956.46C5032.65 3941.62 5200.79 3920.84 5288.52 3956.46C5409.72 4025.99 5711.65 4093.82 5949.77 3808.88C6054.48 3674.48 6117.96 3598.63 6336.46 3527.72L6864.96 3381.79C6855.89 3291.09 6855.07 3305.93 6830.33 3178.96L6524.44 3268.83C6400.77 3295.21 6147.81 3415.92 5706.54 3295.21C5615.3 3281.47 5389.6 3308.73 5216.79 3527.72C5191.78 3578.02 5051.89 3708.12 4692.41 3826.19Z" fill="#6E67FC"/>
<ellipse cx="5621.41" cy="3643.96" rx="225.017" ry="134.975" transform="rotate(-27.7616 5621.41 3643.96)" fill="#8A83FF"/>
<ellipse cx="5495.47" cy="2588.44" rx="191.084" ry="106.061" transform="rotate(-27.7616 5495.47 2588.44)" fill="#7165FF"/>
<path d="M4148.24 3150.1C4094.9 3363.36 4097.12 3363.65 4097.12 3573.07C4709.97 3227.32 4767.44 3207.53 5406.42 2944.8C5367.12 2896.16 5215.38 2848.95 4880.97 2932.72L4148.24 3150.1Z" fill="#7264FF"/>
<path d="M5916.79 2574.6C5852.48 2693.33 5846.71 2767.53 5702.42 2865.65C6131.98 2730.43 6039.64 2811.23 6582.98 2679.31C6531.04 2604.28 6431.27 2493.8 6283.69 2393.21C6134.45 2429.49 6018.2 2436.91 5916.79 2574.6Z" fill="#7166FF"/>
<path d="M5418.07 2936.39C3072.79 3600.74 2368.75 4685.93 4430.75 4428.79C4352.85 4343.47 4271.47 4202.41 4227.81 4113.42C2913.36 4299.95 4326.23 3584.81 5507.2 3227.91C6688.17 2871 7989.56 2759.48 6854.53 3294.12C6867.13 3349.82 6883.21 3509.26 6868.85 3656.99C8598.3 2772.94 7763.35 2272.05 5418.07 2936.39Z" fill="white"/>
</g>
<defs>
<filter id="filter0_d_392_2" x="-848.921" y="-782.674" width="12953.6" height="8520.54" filterUnits="userSpaceOnUse" color-interpolation-filters="sRGB">
<feFlood flood-opacity="0" result="BackgroundImageFix"/>
<feColorMatrix in="SourceAlpha" type="matrix" values="0 0 0 0 0 0 0 0 0 0 0 0 0 0 0 0 0 0 127 0" result="hardAlpha"/>
<feOffset dy="40"/>
<feGaussianBlur stdDeviation="1.2"/>
<feComposite in2="hardAlpha" operator="out"/>
<feColorMatrix type="matrix" values="0 0 0 0 0 0 0 0 0 0 0 0 0 0 0 0 0 0 0.25 0"/>
<feBlend mode="normal" in2="BackgroundImageFix" result="effect1_dropShadow_392_2"/>
<feBlend mode="normal" in="SourceGraphic" in2="effect1_dropShadow_392_2" result="shape"/>
</filter>
<radialGradient id="paint0_radial_392_2" cx="0" cy="0" r="1" gradientUnits="userSpaceOnUse" gradientTransform="translate(5627.86 3456.39) rotate(90) scale(6041.83 9227.77)">
<stop offset="0.0459576" stop-color="#402E72"/>
<stop offset="1"/>
</radialGradient>
<clipPath id="clip0_392_2">
<rect width="10999" height="7056" fill="white"/>
</clipPath>
</defs>
</svg>
