<svg width="2256" height="442" viewBox="0 0 2256 442" fill="none" xmlns="http://www.w3.org/2000/svg">
<g filter="url(#filter0_d_416_27)">
<path d="M7 117.42V342.001C7 397.229 51.7716 442.001 107 442.001H2149C2204.23 442.001 2249 397.229 2249 342.001V117.42C2249 62.1915 2204.23 17.4199 2149 17.4199H107C51.7715 17.4199 7 62.1914 7 117.42Z" fill="url(#paint0_linear_416_27)"/>
<path d="M719.774 165H741.774V285H777.974V305H719.774V165ZM788.524 165H848.524V185H810.524V222H840.724V242H810.524V285H848.524V305H788.524V165ZM878.18 165H907.98L930.78 305H908.78L904.78 277.2V277.6H879.78L875.78 305H855.38L878.18 165ZM902.18 258.6L892.38 189.4H891.98L882.38 258.6H902.18ZM941.454 165H974.054C985.387 165 993.654 167.667 998.854 173C1004.05 178.2 1006.65 186.267 1006.65 197.2V205.8C1006.65 220.333 1001.85 229.533 992.254 233.4V233.8C997.587 235.4 1001.32 238.667 1003.45 243.6C1005.72 248.533 1006.85 255.133 1006.85 263.4V288C1006.85 292 1006.99 295.267 1007.25 297.8C1007.52 300.2 1008.19 302.6 1009.25 305H986.854C986.054 302.733 985.521 300.6 985.254 298.6C984.987 296.6 984.854 293 984.854 287.8V262.2C984.854 255.8 983.787 251.333 981.654 248.8C979.654 246.267 976.121 245 971.054 245H963.454V305H941.454V165ZM971.454 225C975.854 225 979.121 223.867 981.254 221.6C983.521 219.333 984.654 215.533 984.654 210.2V199.4C984.654 194.333 983.721 190.667 981.854 188.4C980.121 186.133 977.321 185 973.454 185H963.454V225H971.454ZM1022.12 165H1049.72L1071.12 248.8H1071.52V165H1091.12V305H1068.52L1042.12 202.8H1041.72V305H1022.12V165ZM1107.47 165H1129.47V305H1107.47V165ZM1140.15 165H1162.35L1176.75 273.6H1177.15L1191.55 165H1211.75L1190.55 305H1161.35L1140.15 165ZM1222.31 165H1282.31V185H1244.31V222H1274.51V242H1244.31V285H1282.31V305H1222.31V165ZM1294.97 165H1327.57C1338.9 165 1347.17 167.667 1352.37 173C1357.57 178.2 1360.17 186.267 1360.17 197.2V205.8C1360.17 220.333 1355.37 229.533 1345.77 233.4V233.8C1351.1 235.4 1354.84 238.667 1356.97 243.6C1359.24 248.533 1360.37 255.133 1360.37 263.4V288C1360.37 292 1360.5 295.267 1360.77 297.8C1361.04 300.2 1361.7 302.6 1362.77 305H1340.37C1339.57 302.733 1339.04 300.6 1338.77 298.6C1338.5 296.6 1338.37 293 1338.37 287.8V262.2C1338.37 255.8 1337.3 251.333 1335.17 248.8C1333.17 246.267 1329.64 245 1324.57 245H1316.97V305H1294.97V165ZM1324.97 225C1329.37 225 1332.64 223.867 1334.77 221.6C1337.04 219.333 1338.17 215.533 1338.17 210.2V199.4C1338.17 194.333 1337.24 190.667 1335.37 188.4C1333.64 186.133 1330.84 185 1326.97 185H1316.97V225H1324.97ZM1404.23 307C1393.57 307 1385.5 304 1380.03 298C1374.57 291.867 1371.83 283.133 1371.83 271.8V263.8H1392.63V273.4C1392.63 282.467 1396.43 287 1404.03 287C1407.77 287 1410.57 285.933 1412.43 283.8C1414.43 281.533 1415.43 277.933 1415.43 273C1415.43 267.133 1414.1 262 1411.43 257.6C1408.77 253.067 1403.83 247.667 1396.63 241.4C1387.57 233.4 1381.23 226.2 1377.63 219.8C1374.03 213.267 1372.23 205.933 1372.23 197.8C1372.23 186.733 1375.03 178.2 1380.63 172.2C1386.23 166.067 1394.37 163 1405.03 163C1415.57 163 1423.5 166.067 1428.83 172.2C1434.3 178.2 1437.03 186.867 1437.03 198.2V204H1416.23V196.8C1416.23 192 1415.3 188.533 1413.43 186.4C1411.57 184.133 1408.83 183 1405.23 183C1397.9 183 1394.23 187.467 1394.23 196.4C1394.23 201.467 1395.57 206.2 1398.23 210.6C1401.03 215 1406.03 220.333 1413.23 226.6C1422.43 234.6 1428.77 241.867 1432.23 248.4C1435.7 254.933 1437.43 262.6 1437.43 271.4C1437.43 282.867 1434.57 291.667 1428.83 297.8C1423.23 303.933 1415.03 307 1404.23 307ZM1450.05 165H1510.05V185H1472.05V222H1502.25V242H1472.05V285H1510.05V305H1450.05V165Z" fill="white"/>
<path d="M1554.74 165H1587.14C1598.07 165 1606.27 167.933 1611.74 173.8C1617.2 179.667 1619.94 188.267 1619.94 199.6V213.4C1619.94 224.733 1617.2 233.333 1611.74 239.2C1606.27 245.067 1598.07 248 1587.14 248H1576.74V305H1554.74V165ZM1587.14 228C1590.74 228 1593.4 227 1595.14 225C1597 223 1597.94 219.6 1597.94 214.8V198.2C1597.94 193.4 1597 190 1595.14 188C1593.4 186 1590.74 185 1587.14 185H1576.74V228H1587.14ZM1631.88 165H1664.48C1675.82 165 1684.08 167.667 1689.28 173C1694.48 178.2 1697.08 186.267 1697.08 197.2V205.8C1697.08 220.333 1692.28 229.533 1682.68 233.4V233.8C1688.02 235.4 1691.75 238.667 1693.88 243.6C1696.15 248.533 1697.28 255.133 1697.28 263.4V288C1697.28 292 1697.42 295.267 1697.68 297.8C1697.95 300.2 1698.62 302.6 1699.68 305H1677.28C1676.48 302.733 1675.95 300.6 1675.68 298.6C1675.42 296.6 1675.28 293 1675.28 287.8V262.2C1675.28 255.8 1674.22 251.333 1672.08 248.8C1670.08 246.267 1666.55 245 1661.48 245H1653.88V305H1631.88V165ZM1661.88 225C1666.28 225 1669.55 223.867 1671.68 221.6C1673.95 219.333 1675.08 215.533 1675.08 210.2V199.4C1675.08 194.333 1674.15 190.667 1672.28 188.4C1670.55 186.133 1667.75 185 1663.88 185H1653.88V225H1661.88ZM1744.35 307C1733.55 307 1725.28 303.933 1719.55 297.8C1713.81 291.667 1710.95 283 1710.95 271.8V198.2C1710.95 187 1713.81 178.333 1719.55 172.2C1725.28 166.067 1733.55 163 1744.35 163C1755.15 163 1763.41 166.067 1769.15 172.2C1774.88 178.333 1777.75 187 1777.75 198.2V271.8C1777.75 283 1774.88 291.667 1769.15 297.8C1763.41 303.933 1755.15 307 1744.35 307ZM1744.35 287C1751.95 287 1755.75 282.4 1755.75 273.2V196.8C1755.75 187.6 1751.95 183 1744.35 183C1736.75 183 1732.95 187.6 1732.95 196.8V273.2C1732.95 282.4 1736.75 287 1744.35 287Z" fill="#F0C653"/>
<circle cx="557.786" cy="229.58" r="72.58" fill="url(#paint1_radial_416_27)"/>
<path d="M554.435 198.597C431.838 233.325 394.931 290.203 502.719 276.762C498.647 272.302 494.313 265.036 492.031 260.384C423.319 270.135 497.36 232.492 559.094 213.835C620.828 195.178 688.679 189.38 629.346 217.327C630.079 221.465 630.83 228.439 630.079 236.161C720.484 189.949 677.032 163.868 554.435 198.597Z" fill="url(#paint2_linear_416_27)" fill-opacity="0.7"/>
</g>
<defs>
<filter id="filter0_d_416_27" x="0.3" y="0.719922" width="2255.4" height="441.28" filterUnits="userSpaceOnUse" color-interpolation-filters="sRGB">
<feFlood flood-opacity="0" result="BackgroundImageFix"/>
<feColorMatrix in="SourceAlpha" type="matrix" values="0 0 0 0 0 0 0 0 0 0 0 0 0 0 0 0 0 0 127 0" result="hardAlpha"/>
<feOffset dy="-10"/>
<feGaussianBlur stdDeviation="3.35"/>
<feComposite in2="hardAlpha" operator="out"/>
<feColorMatrix type="matrix" values="0 0 0 0 0 0 0 0 0 0 0 0 0 0 0 0 0 0 0.25 0"/>
<feBlend mode="normal" in2="BackgroundImageFix" result="effect1_dropShadow_416_27"/>
<feBlend mode="normal" in="SourceGraphic" in2="effect1_dropShadow_416_27" result="shape"/>
</filter>
<linearGradient id="paint0_linear_416_27" x1="1203" y1="-114" x2="1223.5" y2="491" gradientUnits="userSpaceOnUse">
<stop stop-color="#313131"/>
<stop offset="1"/>
</linearGradient>
<radialGradient id="paint1_radial_416_27" cx="0" cy="0" r="1" gradientUnits="userSpaceOnUse" gradientTransform="translate(584.436 257.754) rotate(-124.634) scale(102.983)">
<stop stop-color="#F2D057"/>
<stop offset="0.42" stop-color="#EBB54B"/>
<stop offset="0.84" stop-color="#85562A"/>
</radialGradient>
<linearGradient id="paint2_linear_416_27" x1="546.035" y1="198.105" x2="558.577" y2="257.711" gradientUnits="userSpaceOnUse">
<stop stop-color="#C99A63"/>
<stop offset="1" stop-color="#3D3C1A"/>
</linearGradient>
</defs>
</svg>
