<svg width="804" height="929" viewBox="0 0 804 929" fill="none" xmlns="http://www.w3.org/2000/svg">
<path d="M108 139C108 122.431 121.431 109 138 109H478C494.569 109 508 122.431 508 139V479C508 495.569 494.569 509 478 509H138C121.431 509 108 495.569 108 479V139Z" fill="#5666FF"/>
<path d="M108 559C108 542.431 121.431 529 138 529H278C294.569 529 308 542.431 308 559V699C308 715.569 294.569 729 278 729H138C121.431 729 108 715.569 108 699V559Z" fill="#EAEAEA"/>
<path d="M308 759C308 742.431 321.431 729 338 729H478C494.569 729 508 742.431 508 759V899C508 915.569 494.569 929 478 929H338C321.431 929 308 915.569 308 899V759Z" fill="#EAEAEA"/>
<path d="M532 139C532 122.431 545.431 109 562 109H774C790.569 109 804 122.431 804 139V351C804 367.569 790.569 381 774 381H562C545.431 381 532 367.569 532 351V139Z" fill="#434343"/>
<path d="M532 687C532 670.431 545.431 657 562 657H774C790.569 657 804 670.431 804 687V899C804 915.569 790.569 929 774 929H562C545.431 929 532 915.569 532 899V687Z" fill="#270E98"/>
<path d="M532 30C532 13.4315 545.431 0 562 0H774C790.569 0 804 13.4315 804 30V54C804 70.5685 790.569 84 774 84H562C545.431 84 532 70.5685 532 54V30Z" fill="#434343"/>
<path d="M0 687C0 670.431 13.4315 657 30 657H54C70.5685 657 84 670.431 84 687V899C84 915.569 70.5685 929 54 929H30C13.4315 929 0 915.569 0 899V687Z" fill="#434343"/>
</svg>
