<?xml version="1.0" encoding="UTF-8" standalone="no"?>
<!DOCTYPE svg PUBLIC "-//W3C//DTD SVG 1.1//EN" "http://www.w3.org/Graphics/SVG/1.1/DTD/svg11.dtd">
<svg xmlns="http://www.w3.org/2000/svg" version="1.1" viewBox="0.00 0.00 512.00 512.00">
<path fill="#000000" d="
  M 327.16 250.71
  C 427.40 282.62 495.64 374.32 495.98 479.75
  C 496.00 488.77 488.92 495.99 479.87 495.99
  Q 250.02 495.95 33.84 496.03
  Q 28.64 496.03 25.82 494.73
  Q 19.66 491.91 17.23 486.13
  Q 15.77 482.65 15.98 475.39
  Q 17.05 437.68 28.35 404.30
  C 53.22 330.81 110.44 274.30 184.73 250.87
  A 0.34 0.34 0.0 0 0 184.82 250.27
  C 119.51 205.94 108.24 114.02 162.92 56.08
  C 199.12 17.72 255.58 5.35 304.48 25.45
  C 371.26 52.91 402.27 129.91 372.84 196.01
  Q 358.07 229.19 327.11 250.38
  A 0.19 0.18 -54.0 0 0 327.16 250.71
  Z
  M 351.96 144.00
  A 95.96 95.96 0.0 0 0 256.00 48.04
  A 95.96 95.96 0.0 0 0 160.04 144.00
  A 95.96 95.96 0.0 0 0 256.00 239.96
  A 95.96 95.96 0.0 0 0 351.96 144.00
  Z
  M 235.42 272.96
  C 179.97 278.45 128.67 306.19 93.97 349.55
  Q 54.09 399.37 48.63 463.58
  A 0.39 0.39 0.0 0 0 49.02 464.00
  L 462.94 464.00
  A 0.48 0.48 0.0 0 0 463.42 463.47
  Q 456.43 387.81 404.34 334.10
  C 360.49 288.89 297.35 266.83 235.42 272.96
  Z"
/>
</svg>
