<?xml version="1.0" encoding="UTF-8" standalone="no"?>
<!DOCTYPE svg PUBLIC "-//W3C//DTD SVG 1.1//EN" "http://www.w3.org/Graphics/SVG/1.1/DTD/svg11.dtd">
<svg xmlns="http://www.w3.org/2000/svg" version="1.1" viewBox="0.00 0.00 512.00 512.00">
<g stroke-width="2.00" fill="none" stroke-linecap="butt">
<path stroke="#20395a" vector-effect="non-scaling-stroke" d="
  M 253.50 0.00
  L 255.50 0.39
  Q 255.96 0.48 255.96 0.95
  L 256.02 29.47
  Q 256.02 29.99 256.53 29.99
  L 377.76 30.02"
/>
<path stroke="#20395a" vector-effect="non-scaling-stroke" d="
  M 377.76 128.45
  L 256.70 128.51
  A 0.69 0.68 0.0 0 0 256.01 129.19
  L 255.79 168.51"
/>
<path stroke="#94a48d" vector-effect="non-scaling-stroke" d="
  M 255.79 168.51
  L 134.22 168.54"
/>
<path stroke="#345973" vector-effect="non-scaling-stroke" d="
  M 134.24 128.46
  L 255.69 128.50
  A 0.32 0.32 0.0 0 0 256.01 128.18
  Q 256.00 75.94 255.85 32.00
  Q 255.85 31.14 255.79 30.67
  A 0.71 0.70 -3.2 0 0 255.09 30.05
  L 134.24 30.02"
/>
<path stroke="#949766" vector-effect="non-scaling-stroke" d="
  M 104.22 30.01
  L 74.25 30.01"
/>
<path stroke="#8b885a" vector-effect="non-scaling-stroke" d="
  M 377.81 168.61
  L 255.79 168.51"
/>
<path stroke="#fff38d" vector-effect="non-scaling-stroke" d="
  M 255.79 168.51
  L 256.00 258.56
  A 0.30 0.30 0.0 0 1 255.49 258.77
  L 224.51 227.79
  A 0.45 0.44 44.6 0 0 223.88 227.79
  L 203.32 248.33
  A 0.48 0.48 0.0 0 0 203.32 249.01
  L 240.39 286.06
  A 2.12 2.12 0.0 0 1 241.00 287.55
  L 241.00 382.54"
/>
<path stroke="#f6f3d3" vector-effect="non-scaling-stroke" d="
  M 241.00 382.54
  L 175.55 382.67"
/>
<path stroke="#e7dba6" vector-effect="non-scaling-stroke" d="
  M 336.51 382.49
  L 271.02 382.57"
/>
<path stroke="#ffd373" vector-effect="non-scaling-stroke" d="
  M 271.02 382.57
  L 270.99 287.56
  A 2.08 2.07 -22.6 0 1 271.60 286.09
  L 308.51 249.20
  A 0.75 0.75 0.0 0 0 308.51 248.14
  L 288.23 227.86
  A 0.55 0.55 0.0 0 0 287.45 227.86
  L 256.49 258.82
  A 1.67 1.66 -22.6 0 0 256.00 260.00
  L 255.79 382.53"
/>
<path stroke="#f6e6ac" vector-effect="non-scaling-stroke" d="
  M 255.79 382.53
  L 241.00 382.54"
/>
<path stroke="#e7c7b3" vector-effect="non-scaling-stroke" d="
  M 271.02 382.57
  L 256.08 382.56"
/>
<path stroke="#f6d3b9" vector-effect="non-scaling-stroke" d="
  M 256.08 382.56
  Q 255.87 382.34 255.79 382.53"
/>
<path stroke="#dedbec" vector-effect="non-scaling-stroke" d="
  M 336.34 422.54
  L 256.42 422.50
  Q 255.80 422.50 255.81 421.89
  L 256.08 382.56"
/>
<path stroke="#f6eef4" vector-effect="non-scaling-stroke" d="
  M 256.03 512.00
  L 255.84 423.45
  Q 255.84 422.83 255.22 422.83
  L 175.53 422.60"
/>
</g>
<path fill="#284866" d="
  M 44.25 0.00
  L 253.50 0.00
  L 255.50 0.39
  Q 255.96 0.48 255.96 0.95
  L 256.02 29.47
  Q 256.02 29.99 256.53 29.99
  L 377.76 30.02
  L 377.76 128.45
  L 256.70 128.51
  A 0.69 0.68 0.0 0 0 256.01 129.19
  L 255.79 168.51
  L 134.22 168.54
  L 134.24 128.46
  L 255.69 128.50
  A 0.32 0.32 0.0 0 0 256.01 128.18
  Q 256.00 75.94 255.85 32.00
  Q 255.85 31.14 255.79 30.67
  A 0.71 0.70 -3.2 0 0 255.09 30.05
  L 134.24 30.02
  L 104.22 30.01
  L 74.25 30.01
  L 44.58 30.02
  Q 44.25 30.02 44.25 29.69
  L 44.25 0.00
  Z"
/>
<path fill="#17294d" d="
  M 253.50 0.00
  L 452.79 0.00
  L 452.80 29.65
  A 0.35 0.35 0.0 0 1 452.45 30.00
  L 377.76 30.02
  L 256.53 29.99
  Q 256.02 29.99 256.02 29.47
  L 255.96 0.95
  Q 255.96 0.48 255.50 0.39
  L 253.50 0.00
  Z"
/>
<path fill="#ffe666" d="
  M 74.25 30.01
  L 104.22 30.01
  L 104.22 104.57
  Q 104.22 105.00 103.78 105.00
  L 74.79 105.00
  Q 74.27 105.00 74.27 104.48
  L 74.25 30.01
  Z"
/>
<path fill="#406a80" d="
  M 134.24 30.02
  L 255.09 30.05
  A 0.71 0.70 -3.2 0 1 255.79 30.67
  Q 255.85 31.14 255.85 32.00
  Q 256.00 75.94 256.01 128.18
  A 0.32 0.32 0.0 0 1 255.69 128.50
  L 134.24 128.46
  L 134.24 30.02
  Z"
/>
<path fill="#17294d" d="
  M 377.76 128.45
  L 377.81 168.61
  L 255.79 168.51
  L 256.01 129.19
  A 0.69 0.68 0.0 0 1 256.70 128.51
  L 377.76 128.45
  Z"
/>
<rect fill="#ffe666" x="-30.47" y="-14.98" transform="translate(460.30,160.49) rotate(-25.0)" width="60.94" height="29.96" rx="0.32"/>
<rect fill="#ffe666" x="-30.47" y="-14.96" transform="translate(51.61,160.76) rotate(25.0)" width="60.94" height="29.92" rx="0.38"/>
<path fill="#ffffb3" d="
  M 255.79 168.51
  L 256.00 258.56
  A 0.30 0.30 0.0 0 1 255.49 258.77
  L 224.51 227.79
  A 0.45 0.44 44.6 0 0 223.88 227.79
  L 203.32 248.33
  A 0.48 0.48 0.0 0 0 203.32 249.01
  L 240.39 286.06
  A 2.12 2.12 0.0 0 1 241.00 287.55
  L 241.00 382.54
  L 175.55 382.67
  Q 172.10 380.13 168.35 377.42
  Q 141.55 358.02 125.36 329.19
  Q 105.73 294.25 106.03 254.01
  Q 106.37 207.53 134.22 168.54
  L 255.79 168.51
  Z"
/>
<path fill="#ffe666" d="
  M 255.79 168.51
  L 377.81 168.61
  C 428.09 239.00 408.96 335.47 336.51 382.49
  L 271.02 382.57
  L 270.99 287.56
  A 2.08 2.07 -22.6 0 1 271.60 286.09
  L 308.51 249.20
  A 0.75 0.75 0.0 0 0 308.51 248.14
  L 288.23 227.86
  A 0.55 0.55 0.0 0 0 287.45 227.86
  L 256.49 258.82
  A 1.67 1.66 -22.6 0 0 256.00 260.00
  L 255.79 382.53
  L 241.00 382.54
  L 241.00 287.55
  A 2.12 2.12 0.0 0 0 240.39 286.06
  L 203.32 249.01
  A 0.48 0.48 0.0 0 1 203.32 248.33
  L 223.88 227.79
  A 0.45 0.44 44.6 0 1 224.51 227.79
  L 255.49 258.77
  A 0.30 0.30 0.0 0 0 256.00 258.56
  L 255.79 168.51
  Z"
/>
<path fill="#ffbf80" d="
  M 271.02 382.57
  L 256.08 382.56
  Q 255.87 382.34 255.79 382.53
  L 256.00 260.00
  A 1.67 1.66 -22.6 0 1 256.49 258.82
  L 287.45 227.86
  A 0.55 0.55 0.0 0 1 288.23 227.86
  L 308.51 248.14
  A 0.75 0.75 0.0 0 1 308.51 249.20
  L 271.60 286.09
  A 2.08 2.07 -22.6 0 0 270.99 287.56
  L 271.02 382.57
  Z"
/>
<path fill="#ffe666" d="
  M 0.00 270.96
  L 0.00 241.17
  L 60.25 241.01
  A 0.74 0.74 0.0 0 1 61.00 241.75
  L 60.99 270.66
  A 0.30 0.29 90.0 0 1 60.70 270.96
  L 0.00 270.96
  Z"
/>
<path fill="#ffe666" d="
  M 512.00 241.07
  L 512.00 270.91
  L 451.52 270.97
  Q 451.00 270.97 451.00 270.45
  L 451.01 242.02
  A 1.01 1.00 90.0 0 1 452.01 241.01
  L 512.00 241.07
  Z"
/>
<rect fill="#ffe666" x="-30.47" y="-14.98" transform="translate(51.76,351.19) rotate(-25.0)" width="60.94" height="29.96" rx="0.35"/>
<rect fill="#ffe666" x="-30.47" y="-14.96" transform="translate(460.45,351.55) rotate(25.0)" width="60.94" height="29.92" rx="0.32"/>
<path fill="#cfcfe6" d="
  M 336.51 382.49
  L 336.34 422.54
  L 256.42 422.50
  Q 255.80 422.50 255.81 421.89
  L 256.08 382.56
  L 271.02 382.57
  L 336.51 382.49
  Z"
/>
<path fill="#ece6f2" d="
  M 241.00 382.54
  L 255.79 382.53
  Q 255.87 382.34 256.08 382.56
  L 255.81 421.89
  Q 255.80 422.50 256.42 422.50
  L 336.34 422.54
  Q 339.26 465.86 307.92 492.92
  Q 288.03 510.09 260.10 512.00
  L 256.03 512.00
  L 255.84 423.45
  Q 255.84 422.83 255.22 422.83
  L 175.53 422.60
  L 175.55 382.67
  L 241.00 382.54
  Z"
/>
<path fill="#fff5f5" d="
  M 256.03 512.00
  L 251.77 512.00
  Q 224.52 510.07 204.50 493.29
  Q 180.19 472.93 175.98 440.51
  Q 175.24 434.81 175.53 422.60
  L 255.22 422.83
  Q 255.84 422.83 255.84 423.45
  L 256.03 512.00
  Z"
/>
</svg>
