<?xml version="1.0" encoding="UTF-8" standalone="no"?>
<!DOCTYPE svg PUBLIC "-//W3C//DTD SVG 1.1//EN" "http://www.w3.org/Graphics/SVG/1.1/DTD/svg11.dtd">
<svg xmlns="http://www.w3.org/2000/svg" version="1.1" viewBox="0.00 0.00 512.00 512.00">
<path fill="#000000" d="
  M 154.87 143.33
  C 154.67 139.67 154.55 135.89 154.65 132.29
  C 155.90 88.84 185.43 54.30 226.35 41.75
  C 268.90 28.71 314.93 45.07 339.91 81.91
  Q 358.34 109.09 357.28 143.54
  A 0.47 0.46 -90.0 0 0 357.75 144.02
  Q 372.13 143.92 386.63 144.07
  C 401.99 144.22 415.19 154.52 420.60 168.59
  Q 422.43 173.36 423.39 187.13
  Q 431.48 303.16 440.35 424.46
  Q 441.37 438.39 440.52 443.43
  C 437.46 461.62 422.18 474.54 403.50 474.56
  Q 248.91 474.71 108.75 474.69
  C 90.58 474.69 74.97 462.16 71.61 444.24
  Q 70.64 439.06 71.21 431.18
  Q 80.16 307.67 88.99 182.00
  Q 89.45 175.40 90.54 171.37
  C 93.91 158.86 104.42 148.34 117.25 145.21
  Q 123.00 143.81 130.91 143.94
  Q 141.51 144.11 154.28 143.96
  Q 154.91 143.95 154.87 143.33
  Z
  M 187.22 144.00
  L 324.88 144.00
  A 0.57 0.57 0.0 0 0 325.45 143.43
  L 325.45 139.16
  A 69.82 69.11 90.0 0 0 256.34 69.34
  L 255.76 69.34
  A 69.82 69.11 -90.0 0 0 186.65 139.16
  L 186.65 143.43
  A 0.57 0.57 0.0 0 0 187.22 144.00
  Z
  M 348.00 270.47
  C 339.54 274.64 329.40 269.97 326.25 261.31
  Q 325.16 258.31 325.21 249.97
  Q 325.44 213.21 325.25 176.24
  A 0.25 0.25 0.0 0 0 325.00 176.00
  L 186.99 176.00
  A 0.31 0.31 0.0 0 0 186.68 176.31
  Q 186.70 215.99 186.63 255.75
  C 186.59 273.68 162.78 278.08 155.80 261.84
  Q 154.45 258.71 154.70 251.69
  Q 155.98 215.32 155.52 176.35
  Q 155.52 175.99 155.16 175.99
  Q 141.77 176.00 126.95 175.97
  C 124.28 175.97 121.45 177.76 121.24 180.63
  Q 112.12 308.09 103.00 435.81
  Q 102.50 442.69 109.38 442.69
  Q 255.08 442.66 403.36 442.69
  C 406.71 442.69 409.31 440.25 409.07 436.78
  Q 399.89 308.25 390.78 180.89
  C 390.57 178.03 388.09 176.02 385.35 176.01
  Q 370.66 175.97 357.56 176.04
  A 0.23 0.23 0.0 0 0 357.33 176.27
  Q 357.29 215.67 357.33 255.11
  Q 357.34 265.86 348.00 270.47
  Z"
/>
</svg>
