<?xml version="1.0" encoding="UTF-8" standalone="no"?>
<!DOCTYPE svg PUBLIC "-//W3C//DTD SVG 1.1//EN" "http://www.w3.org/Graphics/SVG/1.1/DTD/svg11.dtd">
<svg xmlns="http://www.w3.org/2000/svg" version="1.1" viewBox="0.00 0.00 512.00 512.00">
<path fill="#000000" d="
  M 512.00 89.89
  L 512.00 94.24
  C 509.85 106.02 501.65 113.30 489.90 113.30
  Q 258.26 113.32 21.59 113.28
  Q 17.46 113.28 13.47 111.77
  C 5.72 108.82 1.68 102.56 0.00 94.15
  L 0.00 89.72
  Q 0.33 88.31 0.65 86.91
  C 2.21 80.01 7.26 74.70 13.81 71.96
  Q 17.09 70.59 28.43 70.60
  Q 258.24 70.78 487.88 70.64
  Q 494.03 70.64 497.94 72.03
  Q 509.60 76.21 512.00 89.89
  Z"
/>
<path fill="#000000" d="
  M 512.00 253.39
  L 512.00 257.76
  C 510.41 268.25 502.03 276.86 491.16 276.86
  Q 247.62 276.79 25.92 276.93
  Q 18.62 276.93 15.42 276.04
  C 7.02 273.70 1.19 266.35 0.00 257.67
  L 0.00 253.23
  C 0.45 251.36 0.78 249.36 1.51 247.66
  Q 7.32 234.22 22.82 234.22
  Q 256.53 234.22 490.73 234.22
  C 501.71 234.22 510.41 242.38 512.00 253.39
  Z"
/>
<path fill="#000000" d="
  M 512.00 417.07
  L 512.00 421.28
  C 509.61 433.86 501.16 440.54 488.97 440.53
  Q 256.07 440.40 23.65 440.52
  C 11.10 440.53 2.45 434.37 0.00 421.22
  L 0.00 416.91
  Q 2.46 403.28 14.04 399.15
  Q 17.76 397.83 21.02 397.83
  Q 256.59 397.70 490.73 397.82
  C 502.09 397.83 510.03 405.77 512.00 417.07
  Z"
/>
</svg>
