<svg width="46" height="70" viewBox="0 0 46 70" fill="none" xmlns="http://www.w3.org/2000/svg">
<path d="M30.4675 4.93404C33.2911 2.20904 37.7891 2.28899 40.5141 5.11261C43.2391 7.93622 43.1592 12.4343 40.3356 15.1593L14.9948 39.615C12.1712 42.34 7.67315 42.26 4.94815 39.4364C2.22315 36.6128 2.3031 32.1147 5.12671 29.3897L30.4675 4.93404Z" fill="#D9D9D9"/>
<path d="M4.94369 39.6023C2.21336 36.7838 2.28481 32.2857 5.10328 29.5553C7.92174 26.825 12.4199 26.8964 15.1502 29.7149L39.6538 55.0094C42.3841 57.8279 42.3127 62.326 39.4942 65.0564C36.6757 67.7867 32.1776 67.7153 29.4472 64.8968L4.94369 39.6023Z" fill="#D9D9D9"/>
</svg>
