<svg width="1192" height="1016" viewBox="0 0 1192 1016" fill="none" xmlns="http://www.w3.org/2000/svg">
<path d="M494.535 54.2743C628.452 -17.706 789.548 -17.706 923.465 54.2743L1006.24 98.7684C1167.6 185.496 1235.21 381.668 1161.54 549.39C1105.5 676.991 979.318 759.389 839.953 759.389H578.047C438.682 759.389 312.499 676.991 256.457 549.39C182.794 381.668 250.401 185.496 411.755 98.7684L494.535 54.2743Z" fill="url(#paint0_linear_351_18)"/>
<path d="M247.208 657.428C195.544 514.439 219.057 355.069 309.812 233.092L365.912 157.692C475.261 10.7239 679.199 -27.527 834.374 69.827C952.429 143.893 1015.53 280.751 995.187 418.624L956.961 677.725C936.62 815.597 836.688 928.403 702.274 965.221C525.596 1013.62 341.393 918.101 279.144 745.816L247.208 657.428Z" fill="url(#paint1_linear_351_18)"/>
<path d="M845.089 634.249C811.972 782.634 706.626 904.511 564.596 958.755L476.801 992.285C305.671 1057.64 113.047 980.507 34.3284 815.097C-25.5599 689.255 -5.38172 539.909 85.7546 434.473L257.025 236.328C348.161 130.892 493.014 89.3114 626.199 130.356C801.26 184.307 905.462 363.739 865.56 542.526L845.089 634.249Z" fill="url(#paint2_linear_351_18)"/>
<defs>
<linearGradient id="paint0_linear_351_18" x1="595.747" y1="0.289062" x2="595.747" y2="1015.47" gradientUnits="userSpaceOnUse">
<stop stop-color="#5666FF"/>
<stop offset="1" stop-color="#B0B8FF"/>
</linearGradient>
<linearGradient id="paint1_linear_351_18" x1="595.747" y1="0.289062" x2="595.747" y2="1015.47" gradientUnits="userSpaceOnUse">
<stop stop-color="#5666FF"/>
<stop offset="1" stop-color="#B0B8FF"/>
</linearGradient>
<linearGradient id="paint2_linear_351_18" x1="595.747" y1="0.289062" x2="595.747" y2="1015.47" gradientUnits="userSpaceOnUse">
<stop stop-color="#5666FF"/>
<stop offset="1" stop-color="#B0B8FF"/>
</linearGradient>
</defs>
</svg>
