<svg width="2799" height="1685" viewBox="0 0 2799 1685" fill="none" xmlns="http://www.w3.org/2000/svg">
<circle cx="1390.39" cy="842.662" r="842" fill="#584BEB"/>
<path d="M1198.39 1279.16C1120.89 1274.16 947.493 1283.46 807.893 1450.66C873.393 1509.16 918.893 1549.16 1026.39 1602.16C1090.56 1571.33 1299.39 1456.96 1485.39 1448.16C1579.89 1444 1807.09 1415.26 1959.89 1333.66C2012.39 1299.66 2040.39 1285.66 2119.39 1264.16C2169.39 1173.66 2179.39 1139.66 2195.89 1088.66L1612.89 1261.16C1507.89 1290.66 1450.89 1315.66 1198.39 1279.16Z" fill="#6E66FB"/>
<path d="M1892.39 606.246L2075.91 557.662" stroke="#6F65FF" stroke-width="60" stroke-linecap="round"/>
<path d="M1976.39 928.662L2175.92 875.662" stroke="#6F65FF" stroke-width="60" stroke-linecap="round"/>
<path d="M1643.39 39.1621L726.893 324.163C783.893 254.163 913.393 104.056 1146.39 33.5722C1353.99 -29.2278 1577.06 9.99541 1643.39 39.1621Z" fill="#7165FF"/>
<path d="M909.893 1023.16L601.393 1135.66C615.393 1171.16 622.893 1192.66 663.393 1266.66L1071.89 1102.16C1116.23 1093.16 1218.19 1080.56 1271.39 1102.16C1344.89 1144.33 1527.99 1185.46 1672.39 1012.66C1735.89 931.162 1774.39 885.162 1906.89 842.162L2227.39 753.662C2221.89 698.662 2221.39 707.662 2206.39 630.662L2020.89 685.162C1945.89 701.162 1792.49 774.362 1524.89 701.162C1469.56 692.828 1332.69 709.362 1227.89 842.162C1212.73 872.662 1127.89 951.562 909.893 1023.16Z" fill="#6E67FC"/>
<ellipse cx="1473.27" cy="912.653" rx="136.457" ry="81.8529" transform="rotate(-27.7616 1473.27 912.653)" fill="#8A83FF"/>
<ellipse cx="1396.89" cy="272.553" rx="115.879" ry="64.3188" transform="rotate(-27.7616 1396.89 272.553)" fill="#7165FF"/>
<path d="M579.893 613.162C547.544 742.49 548.893 742.661 548.893 869.661C920.545 659.99 955.393 647.99 1342.89 488.662C1319.06 459.162 1227.04 430.533 1024.24 481.333L579.893 613.162Z" fill="#7264FF"/>
<path d="M1652.39 264.162C1613.39 336.162 1609.89 381.162 1522.39 440.662C1782.89 358.662 1726.89 407.662 2056.39 327.662C2024.89 282.162 1964.39 215.162 1874.89 154.162C1784.39 176.162 1713.89 180.662 1652.39 264.162Z" fill="#7166FF"/>
<path d="M1349.96 483.564C-72.2897 886.445 -499.243 1544.53 751.215 1388.6C703.974 1336.86 654.621 1251.31 628.148 1197.35C-168.974 1310.47 687.833 876.783 1404.01 660.346C2120.18 443.909 2909.38 376.28 2221.07 700.498C2228.71 734.277 2238.46 830.968 2229.75 920.552C3278.54 384.442 2772.2 80.6833 1349.96 483.564Z" fill="#29265C"/>
</svg>
