<svg width="2800" height="1685" viewBox="0 0 2800 1685" fill="none" xmlns="http://www.w3.org/2000/svg">
<circle cx="1391" cy="843" r="842" fill="#584BEB"/>
<path d="M1199 1279.5C1121.5 1274.5 948.1 1283.8 808.5 1451C874 1509.5 919.5 1549.5 1027 1602.5C1091.17 1571.67 1300 1457.3 1486 1448.5C1580.5 1444.33 1807.7 1415.6 1960.5 1334C2013 1300 2041 1286 2120 1264.5C2170 1174 2180 1140 2196.5 1089L1613.5 1261.5C1508.5 1291 1451.5 1316 1199 1279.5Z" fill="#6E66FB"/>
<path d="M1893 606.584L2076.52 558" stroke="#6F65FF" stroke-width="60" stroke-linecap="round"/>
<path d="M1977 929L2176.52 876" stroke="#6F65FF" stroke-width="60" stroke-linecap="round"/>
<path d="M1644 39.5L727.5 324.501C784.5 254.501 914 104.394 1147 33.9101C1354.6 -28.8899 1577.67 10.3333 1644 39.5Z" fill="#7165FF"/>
<path d="M910.5 1023.5L602 1136C616 1171.5 623.5 1193 664 1267L1072.5 1102.5C1116.83 1093.5 1218.8 1080.9 1272 1102.5C1345.5 1144.67 1528.6 1185.8 1673 1013C1736.5 931.5 1775 885.5 1907.5 842.5L2228 754C2222.5 699 2222 708 2207 631L2021.5 685.5C1946.5 701.5 1793.1 774.7 1525.5 701.5C1470.17 693.166 1333.3 709.7 1228.5 842.5C1213.33 873 1128.5 951.9 910.5 1023.5Z" fill="#6E67FC"/>
<ellipse cx="1473.88" cy="912.991" rx="136.457" ry="81.8529" transform="rotate(-27.7616 1473.88 912.991)" fill="#8A83FF"/>
<ellipse cx="1397.5" cy="272.891" rx="115.879" ry="64.3188" transform="rotate(-27.7616 1397.5 272.891)" fill="#7165FF"/>
<path d="M580.5 613.499C548.152 742.828 549.5 742.999 549.5 869.999C921.152 660.328 956 648.328 1343.5 489C1319.67 459.5 1227.65 430.871 1024.85 481.671L580.5 613.499Z" fill="#7264FF"/>
<path d="M1653 264.5C1614 336.5 1610.5 381.5 1523 441C1783.5 359 1727.5 408 2057 328C2025.5 282.5 1965 215.5 1875.5 154.5C1785 176.5 1714.5 181 1653 264.5Z" fill="#7166FF"/>
<path d="M1350.56 483.902C-71.6817 886.783 -498.635 1544.87 751.822 1388.93C704.582 1337.2 655.229 1251.65 628.756 1197.69C-168.366 1310.81 688.441 877.121 1404.62 660.684C2120.79 444.247 2909.99 376.618 2221.68 700.836C2229.32 734.615 2239.07 831.306 2230.36 920.89C3279.15 384.779 2772.81 81.0212 1350.56 483.902Z" fill="white"/>
</svg>
