<svg width="1241" height="796" viewBox="0 0 1241 796" fill="none" xmlns="http://www.w3.org/2000/svg">
<g clip-path="url(#clip0_392_2)">
<g filter="url(#filter0_d_392_2)">
<path d="M1271.56 -26.2508C1189.68 -79.8821 1074.09 -88.2949 937.621 -88.2949H330.746C195.885 -88.2949 80.2893 -79.8821 -1.58995 -26.2508C-83.4727 27.3805 -95.5117 102.571 -95.5117 190.381V587.886C-95.5117 677.798 -83.4727 752.464 -1.58995 806.095C80.2893 859.726 195.885 868.139 333.154 868.139H937.621C1074.09 868.139 1189.68 859.726 1271.56 806.095C1353.45 752.464 1365.48 677.798 1365.48 587.886V191.958C1365.48 102.046 1353.45 26.8555 1271.56 -26.2508Z" fill="url(#paint0_radial_392_2)"/>
</g>
<circle cx="620.5" cy="397.5" r="230.5" fill="url(#paint1_radial_392_2)"/>
</g>
<defs>
<filter id="filter0_d_392_2" x="-97.9117" y="-88.2949" width="1465.79" height="998.836" filterUnits="userSpaceOnUse" color-interpolation-filters="sRGB">
<feFlood flood-opacity="0" result="BackgroundImageFix"/>
<feColorMatrix in="SourceAlpha" type="matrix" values="0 0 0 0 0 0 0 0 0 0 0 0 0 0 0 0 0 0 127 0" result="hardAlpha"/>
<feOffset dy="40"/>
<feGaussianBlur stdDeviation="1.2"/>
<feComposite in2="hardAlpha" operator="out"/>
<feColorMatrix type="matrix" values="0 0 0 0 0 0 0 0 0 0 0 0 0 0 0 0 0 0 0.25 0"/>
<feBlend mode="normal" in2="BackgroundImageFix" result="effect1_dropShadow_392_2"/>
<feBlend mode="normal" in="SourceGraphic" in2="effect1_dropShadow_392_2" result="shape"/>
</filter>
<radialGradient id="paint0_radial_392_2" cx="0" cy="0" r="1" gradientUnits="userSpaceOnUse" gradientTransform="translate(634.983 389.922) rotate(89.989) scale(400.295 611.466)">
<stop offset="0.0459576" stop-color="#004A38"/>
<stop offset="1" stop-color="#011410"/>
</radialGradient>
<radialGradient id="paint1_radial_392_2" cx="0" cy="0" r="1" gradientUnits="userSpaceOnUse" gradientTransform="translate(705.136 486.975) rotate(-124.634) scale(327.055)">
<stop stop-color="#57F28C"/>
<stop offset="0.42" stop-color="#4BEB95"/>
<stop offset="0.84" stop-color="#2A855A"/>
</radialGradient>
<clipPath id="clip0_392_2">
<rect width="1241" height="796" fill="white"/>
</clipPath>
</defs>
</svg>
