<svg width="360" height="360" viewBox="0 0 360 360" fill="none" xmlns="http://www.w3.org/2000/svg">
<rect width="360" height="360" fill="#CFCBFF"/>
<path d="M321 179.5C321 257.648 257.648 321 179.5 321C101.352 321 38 257.648 38 179.5C38 101.352 101.352 38 179.5 38C257.648 38 321 101.352 321 179.5Z" fill="white"/>
<path d="M248.47 219.667C209.007 194.779 149.989 194.777 110.527 219.665C68.4841 246.18 109.294 295 159 295H200C249.706 295 290.513 246.181 248.47 219.667Z" fill="#CFCBFF"/>
<path d="M234 131C234 160.823 209.823 185 180 185C150.177 185 126 160.823 126 131C126 101.177 150.177 77 180 77C209.823 77 234 101.177 234 131Z" fill="#CFCBFF"/>
</svg>
