<svg width="960" height="226" viewBox="0 0 960 226" fill="none" xmlns="http://www.w3.org/2000/svg">
<rect x="134" y="24" width="826" height="177" rx="50" fill="#141414"/>
<path d="M377.452 82.8H388.012V140.4H405.388V150H377.452V82.8ZM410.452 82.8H439.252V92.4H421.012V110.16H435.508V119.76H421.012V140.4H439.252V150H410.452V82.8ZM453.487 82.8H467.791L478.735 150H468.175L466.255 136.656V136.848H454.255L452.335 150H442.543L453.487 82.8ZM465.007 127.728L460.303 94.512H460.111L455.503 127.728H465.007ZM483.858 82.8H499.506C504.946 82.8 508.914 84.08 511.41 86.64C513.906 89.136 515.154 93.008 515.154 98.256V102.384C515.154 109.36 512.85 113.776 508.242 115.632V115.824C510.802 116.592 512.594 118.16 513.618 120.528C514.706 122.896 515.25 126.064 515.25 130.032V141.84C515.25 143.76 515.314 145.328 515.442 146.544C515.57 147.696 515.89 148.848 516.402 150H505.65C505.266 148.912 505.01 147.888 504.882 146.928C504.754 145.968 504.69 144.24 504.69 141.744V129.456C504.69 126.384 504.178 124.24 503.154 123.024C502.194 121.808 500.498 121.2 498.066 121.2H494.418V150H483.858V82.8ZM498.258 111.6C500.37 111.6 501.938 111.056 502.962 109.968C504.05 108.88 504.594 107.056 504.594 104.496V99.312C504.594 96.88 504.146 95.12 503.25 94.032C502.418 92.944 501.074 92.4 499.218 92.4H494.418V111.6H498.258ZM522.577 82.8H535.825L546.097 123.024H546.289V82.8H555.697V150H544.849L532.177 100.944H531.985V150H522.577V82.8ZM563.545 82.8H574.105V150H563.545V82.8ZM579.23 82.8H589.886L596.798 134.928H596.99L603.902 82.8H613.598L603.422 150H589.406L579.23 82.8ZM618.67 82.8H647.47V92.4H629.23V110.16H643.726V119.76H629.23V140.4H647.47V150H618.67V82.8ZM653.545 82.8H669.193C674.633 82.8 678.601 84.08 681.097 86.64C683.593 89.136 684.841 93.008 684.841 98.256V102.384C684.841 109.36 682.537 113.776 677.929 115.632V115.824C680.489 116.592 682.281 118.16 683.305 120.528C684.393 122.896 684.937 126.064 684.937 130.032V141.84C684.937 143.76 685.001 145.328 685.129 146.544C685.257 147.696 685.577 148.848 686.089 150H675.337C674.953 148.912 674.697 147.888 674.569 146.928C674.441 145.968 674.377 144.24 674.377 141.744V129.456C674.377 126.384 673.865 124.24 672.841 123.024C671.881 121.808 670.185 121.2 667.753 121.2H664.105V150H653.545V82.8ZM667.945 111.6C670.057 111.6 671.625 111.056 672.649 109.968C673.737 108.88 674.281 107.056 674.281 104.496V99.312C674.281 96.88 673.833 95.12 672.937 94.032C672.105 92.944 670.761 92.4 668.905 92.4H664.105V111.6H667.945ZM705.992 150.96C700.872 150.96 697 149.52 694.376 146.64C691.752 143.696 690.44 139.504 690.44 134.064V130.224H700.424V134.832C700.424 139.184 702.248 141.36 705.896 141.36C707.688 141.36 709.032 140.848 709.928 139.824C710.888 138.736 711.368 137.008 711.368 134.64C711.368 131.824 710.728 129.36 709.448 127.248C708.168 125.072 705.8 122.48 702.344 119.472C697.992 115.632 694.952 112.176 693.224 109.104C691.496 105.968 690.632 102.448 690.632 98.544C690.632 93.232 691.976 89.136 694.664 86.256C697.352 83.312 701.256 81.84 706.376 81.84C711.432 81.84 715.24 83.312 717.8 86.256C720.424 89.136 721.736 93.296 721.736 98.736V101.52H711.752V98.064C711.752 95.76 711.304 94.096 710.408 93.072C709.512 91.984 708.2 91.44 706.472 91.44C702.952 91.44 701.192 93.584 701.192 97.872C701.192 100.304 701.832 102.576 703.112 104.688C704.456 106.8 706.856 109.36 710.312 112.368C714.728 116.208 717.768 119.696 719.432 122.832C721.096 125.968 721.928 129.648 721.928 133.872C721.928 139.376 720.552 143.6 717.8 146.544C715.112 149.488 711.176 150.96 705.992 150.96ZM727.983 82.8H756.783V92.4H738.543V110.16H753.039V119.76H738.543V140.4H756.783V150H727.983V82.8ZM778.233 82.8H793.785C799.033 82.8 802.969 84.208 805.593 87.024C808.217 89.84 809.529 93.968 809.529 99.408V106.032C809.529 111.472 808.217 115.6 805.593 118.416C802.969 121.232 799.033 122.64 793.785 122.64H788.793V150H778.233V82.8ZM793.785 113.04C795.513 113.04 796.793 112.56 797.625 111.6C798.521 110.64 798.969 109.008 798.969 106.704V98.736C798.969 96.432 798.521 94.8 797.625 93.84C796.793 92.88 795.513 92.4 793.785 92.4H788.793V113.04H793.785ZM815.264 82.8H830.912C836.352 82.8 840.32 84.08 842.816 86.64C845.312 89.136 846.56 93.008 846.56 98.256V102.384C846.56 109.36 844.256 113.776 839.648 115.632V115.824C842.208 116.592 844 118.16 845.024 120.528C846.112 122.896 846.656 126.064 846.656 130.032V141.84C846.656 143.76 846.72 145.328 846.848 146.544C846.976 147.696 847.296 148.848 847.808 150H837.056C836.672 148.912 836.416 147.888 836.288 146.928C836.16 145.968 836.096 144.24 836.096 141.744V129.456C836.096 126.384 835.584 124.24 834.56 123.024C833.6 121.808 831.904 121.2 829.472 121.2H825.824V150H815.264V82.8ZM829.664 111.6C831.776 111.6 833.344 111.056 834.368 109.968C835.456 108.88 836 107.056 836 104.496V99.312C836 96.88 835.552 95.12 834.656 94.032C833.824 92.944 832.48 92.4 830.624 92.4H825.824V111.6H829.664ZM869.247 150.96C864.063 150.96 860.095 149.488 857.343 146.544C854.591 143.6 853.215 139.44 853.215 134.064V98.736C853.215 93.36 854.591 89.2 857.343 86.256C860.095 83.312 864.063 81.84 869.247 81.84C874.431 81.84 878.399 83.312 881.151 86.256C883.903 89.2 885.279 93.36 885.279 98.736V134.064C885.279 139.44 883.903 143.6 881.151 146.544C878.399 149.488 874.431 150.96 869.247 150.96ZM869.247 141.36C872.895 141.36 874.719 139.152 874.719 134.736V98.064C874.719 93.648 872.895 91.44 869.247 91.44C865.599 91.44 863.775 93.648 863.775 98.064V134.736C863.775 139.152 865.599 141.36 869.247 141.36Z" fill="white"/>
<circle cx="185.909" cy="112.645" r="112.645" fill="url(#paint0_radial_420_1648)"/>
<path d="M180.708 64.5587C-9.56311 118.457 -66.8441 206.733 100.445 185.871C94.1247 178.95 87.3973 167.672 83.8556 160.453C-22.785 175.586 92.1277 117.164 187.939 88.209C283.751 59.2535 389.055 50.2538 296.971 93.6284C298.108 100.05 299.273 110.875 298.108 122.86C438.417 51.1377 370.979 10.6604 180.708 64.5587Z" fill="url(#paint1_linear_420_1648)" fill-opacity="0.7"/>
<defs>
<radialGradient id="paint0_radial_420_1648" cx="0" cy="0" r="1" gradientUnits="userSpaceOnUse" gradientTransform="translate(227.27 156.371) rotate(-124.634) scale(159.831)">
<stop stop-color="#F2D057"/>
<stop offset="0.42" stop-color="#EBB54B"/>
<stop offset="0.84" stop-color="#85562A"/>
</radialGradient>
<linearGradient id="paint1_linear_420_1648" x1="167.67" y1="63.795" x2="187.136" y2="156.305" gradientUnits="userSpaceOnUse">
<stop stop-color="#C99A63"/>
<stop offset="1" stop-color="#3D3C1A"/>
</linearGradient>
</defs>
</svg>
