<svg width="432" height="432" viewBox="0 0 432 432" fill="none" xmlns="http://www.w3.org/2000/svg">
<path fill-rule="evenodd" clip-rule="evenodd" d="M85.0892 48.8239C90.5864 43.4383 98.3043 39.9269 112.879 38.0072C127.881 36.031 147.766 36 176.276 36H255.724C284.234 36 304.119 36.031 319.122 38.0072C333.697 39.9269 341.413 43.4383 346.91 48.8239C352.408 54.2097 355.991 61.771 357.952 76.0498C359.968 90.7486 360 110.23 360 138.162V279.243H132.221C115.975 279.238 104.889 279.234 95.3818 281.731C86.8813 283.961 78.9961 287.606 72 292.396V138.162C72 110.23 72.0317 90.7486 74.0488 76.05C76.0082 61.771 79.5922 54.2097 85.0892 48.8239ZM136.552 104.108C128.325 104.108 121.655 110.642 121.655 118.703C121.655 126.763 128.325 133.297 136.552 133.297H295.448C303.676 133.297 310.345 126.763 310.345 118.703C310.345 110.642 303.676 104.108 295.448 104.108H136.552ZM121.655 186.811C121.655 178.75 128.325 172.216 136.552 172.216H235.861C244.089 172.216 250.758 178.75 250.758 186.811C250.758 194.872 244.089 201.406 235.861 201.406H136.552C128.325 201.406 121.655 194.872 121.655 186.811Z" fill="#656565"/>
<path d="M134.521 308.434C115.091 308.434 108.298 308.56 103.093 309.926C88.8057 313.677 77.4159 324.081 72.5314 337.606C72.8334 344.489 73.3066 350.545 74.0488 355.952C76.0083 370.231 79.5922 377.793 85.0893 383.179C90.5865 388.564 98.3043 392.074 112.879 393.995C127.881 395.971 147.766 396.002 176.276 396.002H255.724C284.234 396.002 304.119 395.971 319.122 393.995C333.697 392.074 341.413 388.564 346.91 383.179C350.809 379.357 353.747 374.443 355.824 366.813H136.552C128.325 366.813 121.655 360.279 121.655 352.219C121.655 344.158 128.325 337.624 136.552 337.624H359.467C359.836 329.236 359.95 319.617 359.984 308.434H134.521Z" fill="#656565"/>
</svg>
