<?xml version="1.0" encoding="UTF-8"?>
<svg width="422" height="360" viewBox="0 0 422 360" fill="none" xmlns="http://www.w3.org/2000/svg">
  <path d="M410.142 54.6636H365.727V12.5327C365.727 9.73927 364.557 7.06023 362.475 5.08496C360.392 3.1097 357.568 2 354.623 2C351.678 2 348.854 3.1097 346.771 5.08496C344.689 7.06023 343.519 9.73927 343.519 12.5327V54.6636H299.104C296.159 54.6636 293.335 55.7733 291.252 57.7485C289.17 59.7238 288 62.4028 288 65.1963C288 67.9897 289.17 70.6688 291.252 72.644C293.335 74.6193 296.159 75.729 299.104 75.729H343.519V117.86C343.519 120.653 344.689 123.332 346.771 125.308C348.854 127.283 351.678 128.393 354.623 128.393C357.568 128.393 360.392 127.283 362.475 125.308C364.557 123.332 365.727 120.653 365.727 117.86V75.729H410.142C413.087 75.729 415.911 74.6193 417.994 72.644C420.076 70.6688 421.246 67.9897 421.246 65.1963C421.246 62.4028 420.076 59.7238 417.994 57.7485C415.911 55.7733 413.087 54.6636 410.142 54.6636Z" fill="#656565"/>
  <path d="M280.086 185.175L187.652 311.31C164.922 342.33 132.806 360 99.1547 360H48.0052C21.4943 360 0 333.135 0 300V225C0 191.865 21.4943 165 48.0052 165H141.459C157.949 165 170.982 183.9 167.43 205.275C165.114 219.165 155.381 229.245 144.148 231.255L94.1981 240C87.6334 241.17 83.0729 248.775 84.0211 256.965C84.9572 265.17 91.0418 270.855 97.5945 269.685L148.624 260.745C173.371 256.335 192.033 229.44 192.033 198.195C192.033 194.91 191.649 191.76 191.253 188.625L233.749 132.57C239.21 125.07 246.915 120.525 255.279 120.045C263.584 119.535 271.637 123.18 277.818 130.215C290.443 144.585 291.475 169.23 280.086 185.175ZM35.9679 105H47.9692V120C47.9692 128.28 53.3457 135 59.9705 135C66.5952 135 71.9718 128.28 71.9718 120V105H83.973C90.5978 105 95.9743 98.28 95.9743 90C95.9743 81.72 90.5978 75 83.973 75H71.9718V60C71.9718 51.72 66.5952 45 59.9705 45C53.3457 45 47.9692 51.72 47.9692 60V75H35.9679C29.3432 75 23.9666 81.72 23.9666 90C23.9666 98.28 29.3432 105 35.9679 105ZM131.978 60H143.979V75C143.979 83.28 149.356 90 155.981 90C162.606 90 167.982 83.28 167.982 75V60H179.983C186.608 60 191.985 53.28 191.985 45C191.985 36.72 186.608 30 179.983 30H167.982V15C167.982 6.72 162.606 0 155.981 0C149.356 0 143.979 6.72 143.979 15V30H131.978C125.353 30 119.977 36.72 119.977 45C119.977 53.28 125.353 60 131.978 60Z" fill="#656565"/>
</svg>

