<svg width="214" height="299" viewBox="0 0 214 299" fill="none" xmlns="http://www.w3.org/2000/svg">
<path d="M0 22C0 9.84974 9.84974 0 22 0H192C204.15 0 214 9.84974 214 22C214 34.1503 204.15 44 192 44H22C9.84974 44 0 34.1503 0 22Z" fill="#656565"/>
<path d="M77 277C77 264.85 86.8497 255 99 255H192C204.15 255 214 264.85 214 277C214 289.15 204.15 299 192 299H99C86.8497 299 77 289.15 77 277Z" fill="#656565"/>
<path d="M0 192C0 179.85 9.84974 170 22 170H192C204.15 170 214 179.85 214 192C214 204.15 204.15 214 192 214H22C9.84974 214 0 204.15 0 192Z" fill="#656565"/>
<path d="M0 107C0 94.8497 9.84974 85 22 85H94C106.15 85 116 94.8497 116 107C116 119.15 106.15 129 94 129H22C9.84974 129 0 119.15 0 107Z" fill="#656565"/>
<path d="M161 85H205V129H161V85Z" fill="#656565"/>
<path d="M6 255H50V299H6V255Z" fill="#656565"/>
</svg>
