<svg width="528" height="396" viewBox="0 0 528 396" fill="none" xmlns="http://www.w3.org/2000/svg">
    <path d="M516.142 52.6636H471.727V10.5327C471.727 7.73927 470.557 5.06023 468.475 3.08496C466.392 1.1097 463.568 0 460.623 0C457.678 0 454.854 1.1097 452.771 3.08496C450.689 5.06023 449.519 7.73927 449.519 10.5327V52.6636H405.104C402.159 52.6636 399.335 53.7733 397.252 55.7485C395.17 57.7238 394 60.4028 394 63.1963C394 65.9897 395.17 68.6688 397.252 70.644C399.335 72.6193 402.159 73.729 405.104 73.729H449.519V115.86C449.519 118.653 450.689 121.332 452.771 123.308C454.854 125.283 457.678 126.393 460.623 126.393C463.568 126.393 466.392 125.283 468.475 123.308C470.557 121.332 471.727 118.653 471.727 115.86V73.729H516.142C519.087 73.729 521.911 72.6193 523.994 70.644C526.076 68.6688 527.246 65.9897 527.246 63.1963C527.246 60.4028 526.076 57.7238 523.994 55.7485C521.911 53.7733 519.087 52.6636 516.142 52.6636Z" fill="#656565"/>
    <path d="M257.823 213.789V170.251C257.823 165.974 259.521 161.873 262.545 158.849C265.569 155.825 269.671 154.126 273.948 154.126H290.073C294.349 154.126 298.451 152.427 301.475 149.403C304.499 146.379 306.198 142.278 306.198 138.001V121.876C306.198 117.599 307.896 113.498 310.92 110.474C313.944 107.45 318.046 105.751 322.323 105.751H365.618C368.764 105.736 371.838 104.815 374.474 103.1C377.111 101.384 379.198 98.9458 380.485 96.0761C385.931 84.0819 388.027 70.8364 386.548 57.747C384.706 44.1186 377.938 31.6361 367.523 22.6556C357.108 13.6751 343.765 8.81802 330.014 9.00109C310.612 9.00231 292.004 16.7109 278.285 30.4312L150.769 157.915C130.214 152.576 108.604 152.843 88.1875 158.689C60.0987 166.632 35.8305 184.467 19.8611 208.901C3.89167 233.336 -2.70123 262.722 1.29896 291.637C5.29914 320.552 19.6224 347.044 41.6258 366.225C63.6292 385.407 91.8277 395.982 121.018 396.001C125.241 395.997 129.46 395.776 133.66 395.34C157.689 392.724 180.39 382.995 198.856 367.399C217.322 351.803 230.712 331.05 237.312 307.797C243.177 287.389 243.438 265.777 238.069 245.232L248.551 234.751C254.124 229.149 257.427 221.681 257.823 213.789ZM88.6874 331.501C83.9036 331.501 79.2271 330.082 75.2495 327.425C71.2719 324.767 68.1717 320.989 66.3411 316.57C64.5104 312.15 64.0314 307.287 64.9646 302.595C65.8979 297.903 68.2016 293.593 71.5842 290.21C74.9669 286.828 79.2767 284.524 83.9686 283.591C88.6606 282.658 93.5239 283.137 97.9435 284.967C102.363 286.798 106.141 289.898 108.799 293.876C111.456 297.853 112.875 302.53 112.875 307.314C112.875 313.729 110.327 319.881 105.791 324.417C101.255 328.953 95.1023 331.501 88.6874 331.501Z" fill="#656565"/>
</svg>
