<svg width="432" height="432" viewBox="0 0 432 432" fill="none" xmlns="http://www.w3.org/2000/svg">
<path fill-rule="evenodd" clip-rule="evenodd" d="M87.1741 396H343.826C366.566 396 385 377.553 385 354.797V185.176C385 162.42 366.566 143.973 343.826 143.973H89.919V133.672C89.919 110.916 108.353 92.4689 131.093 92.4689H320.494C328.074 92.4689 334.219 86.3198 334.219 78.7344C334.219 71.1491 328.074 65 320.494 65H87.1741C64.4343 65 46 83.4474 46 106.203V143.973V354.797C46 377.553 64.4343 396 87.1741 396ZM314.318 301.232C330.615 301.232 343.826 288.012 343.826 271.703C343.826 255.395 330.615 242.174 314.318 242.174C298.021 242.174 284.81 255.395 284.81 271.703C284.81 288.012 298.021 301.232 314.318 301.232Z" fill="#656565"/>
</svg>
