<svg width="444" height="360" viewBox="0 0 444 360" fill="none" xmlns="http://www.w3.org/2000/svg">
    <path fill-rule="evenodd" clip-rule="evenodd" d="M13.0892 12.8239C18.5864 7.43832 26.3043 3.92688 40.8785 2.00718C55.8814 0.0309608 75.7656 0 104.276 0H183.724C212.234 0 232.119 0.0309608 247.122 2.00718C261.697 3.92688 269.413 7.43832 274.91 12.8239C280.408 18.2097 283.991 25.771 285.952 40.0498C287.968 54.7486 288 74.2297 288 102.162V243.243H60.2213C43.9749 243.238 32.8889 243.234 23.3818 245.731C14.8813 247.961 6.99606 251.606 0 256.396V102.162C0 74.2297 0.0316813 54.7486 2.04876 40.05C4.00824 25.771 7.59222 18.2097 13.0892 12.8239ZM64.5518 68.108C56.3245 68.108 49.6552 74.6424 49.6552 82.7026C49.6552 90.763 56.3245 97.2974 64.5518 97.2974H223.448C231.676 97.2974 238.345 90.763 238.345 82.7026C238.345 74.6424 231.676 68.108 223.448 68.108H64.5518ZM49.6552 150.811C49.6552 142.75 56.3245 136.216 64.5518 136.216H163.861C172.089 136.216 178.758 142.75 178.758 150.811C178.758 158.872 172.089 165.406 163.861 165.406H64.5518C56.3245 165.406 49.6552 158.872 49.6552 150.811Z" fill="#656565"/>
    <path d="M62.5213 272.434C43.091 272.434 36.2981 272.56 31.0927 273.926C16.8056 277.677 5.41573 288.081 0.53125 301.606C0.83329 308.489 1.30651 314.545 2.04865 319.952C4.00813 334.231 7.59211 341.793 13.0891 347.179C18.5863 352.564 26.3042 356.074 40.8784 357.995C55.8812 359.971 75.7655 360.002 104.276 360.002H183.724C212.234 360.002 232.119 359.971 247.122 357.995C261.696 356.074 269.413 352.564 274.91 347.179C278.809 343.357 281.747 338.443 283.824 330.813H64.5517C56.3244 330.813 49.655 324.279 49.655 316.219C49.655 308.158 56.3244 301.624 64.5517 301.624H287.467C287.836 293.236 287.949 283.617 287.984 272.434H62.5213Z" fill="#656565"/>
    <path d="M432.146 58.4136H387.731V16.2827C387.731 13.4893 386.561 10.8102 384.479 8.83496C382.396 6.8597 379.572 5.75 376.627 5.75C373.682 5.75 370.858 6.8597 368.775 8.83496C366.693 10.8102 365.523 13.4893 365.523 16.2827V58.4136H321.108C318.163 58.4136 315.339 59.5233 313.256 61.4985C311.174 63.4738 310.004 66.1528 310.004 68.9463C310.004 71.7397 311.174 74.4188 313.256 76.394C315.339 78.3693 318.163 79.479 321.108 79.479H365.523V121.61C365.523 124.403 366.693 127.082 368.775 129.058C370.858 131.033 373.682 132.143 376.627 132.143C379.572 132.143 382.396 131.033 384.479 129.058C386.561 127.082 387.731 124.403 387.731 121.61V79.479H432.146C435.091 79.479 437.915 78.3693 439.998 76.394C442.08 74.4188 443.25 71.7397 443.25 68.9463C443.25 66.1528 442.08 63.4738 439.998 61.4985C437.915 59.5233 435.091 58.4136 432.146 58.4136Z" fill="#656565"/>
</svg>
